<?xml version="1.0" standalone="no"?>
<!DOCTYPE svg PUBLIC "-//W3C//DTD SVG 1.1//EN" "http://www.w3.org/Graphics/SVG/1.1/DTD/svg11.dtd" >
<svg xmlns="http://www.w3.org/2000/svg">
<metadata>
This is a custom SVG webfont generated by Font Squirrel.
Copyright   : C2002 House IndustriesBrand Design Co Inc
Designer    : Christian Schwartz
Foundry URL : httpwwwhouseindustriescom
</metadata>
<defs>
<font id="webfontfifXLLQg" horiz-adv-x="1064" >
<font-face units-per-em="2048" ascent="1638" descent="-410" />
<missing-glyph horiz-adv-x="409" />
<glyph unicode=" "  horiz-adv-x="409" />
<glyph unicode="&#x09;" horiz-adv-x="409" />
<glyph unicode="&#xa0;" horiz-adv-x="409" />
<glyph unicode="!" horiz-adv-x="579" d="M291 -12q-72 0 -123 48t-51 126q0 76 51 124t123 48q70 0 121 -48t51 -124q0 -78 -51 -126t-121 -48zM135 1393h309l-45 -920h-219z" />
<glyph unicode="&#x22;" horiz-adv-x="835" d="M74 1393h295l-31 -506h-234zM465 1393h297l-31 -506h-233z" />
<glyph unicode="#" d="M481 852l-35 -137h142l35 137h-142zM150 852v217h163l49 199h224l-49 -199h139l49 199h221l-49 -199h109v-217h-162l-35 -137h106v-217h-161l-52 -207h-221l51 207h-141l-51 -207h-221l51 207h-111v217h166l35 137h-110z" />
<glyph unicode="$" d="M602 199q63 8 86 30.5t23 59.5t-19.5 62.5t-89.5 47.5v-200zM465 879q-55 -8 -75.5 -29t-20.5 -49q0 -37 19.5 -58.5t76.5 -42.5v179zM465 -14q-84 6 -147.5 28.5t-111.5 56t-83 75.5t-60 90l203 114q35 -61 78 -100t121 -51v241q-96 29 -161.5 63t-106.5 76t-59.5 92 t-18.5 111q0 121 85 206t261 97v207h137v-211q104 -16 174 -64t123 -116l-178 -135q-23 35 -50.5 61.5t-68.5 40.5v-206q168 -51 266.5 -137.5t98.5 -221.5q0 -156 -92.5 -232.5t-272.5 -86.5v-222h-137v224z" />
<glyph unicode="%" horiz-adv-x="1536" d="M1210 180q41 0 61.5 33t20.5 90t-20.5 90t-61.5 33t-61.5 -33t-20.5 -90t20.5 -90t61.5 -33zM328 643q41 0 61.5 33t20.5 90t-20.5 90t-61.5 33t-61.5 -33t-20.5 -90t20.5 -90t61.5 -33zM1210 -18q-63 0 -118.5 23.5t-95.5 66.5t-62.5 101t-22.5 130q0 70 22.5 129.5 t62.5 102.5t95.5 66.5t118.5 23.5t117.5 -23.5t94.5 -66.5t62.5 -102.5t22.5 -129.5q0 -72 -22.5 -130t-62.5 -101t-94.5 -66.5t-117.5 -23.5zM969 1069h272l-676 -1069h-272zM328 444q-63 0 -118.5 24t-95.5 67t-62.5 101t-22.5 130q0 70 22.5 129t62.5 102t95 66.5 t119 23.5q63 0 117.5 -23.5t94.5 -66.5t62.5 -102t22.5 -129q0 -72 -22.5 -130t-62.5 -101t-94.5 -67t-117.5 -24z" />
<glyph unicode="&#x26;" horiz-adv-x="1423" d="M524 641q-90 -49 -120.5 -104.5t-30.5 -122.5q0 -88 57 -136.5t184 -48.5q111 0 203 50zM639 918q78 43 108.5 82.5t30.5 86.5t-29.5 74t-76.5 27t-79 -29t-32 -76q0 -53 22.5 -87.5t51.5 -71.5zM993 479q23 53 36 118t13 142h258q0 -141 -35.5 -259t-101.5 -212 l217 -268h-338l-69 86q-78 -51 -169 -77.5t-190 -26.5q-129 0 -230 30.5t-170 85t-104.5 129t-35.5 164.5q0 76 19.5 134.5t59.5 106.5t100 89t142 82q-53 72 -74.5 138.5t-21.5 137.5q0 68 24.5 128.5t72.5 104.5t117 70.5t155 26.5q82 0 149.5 -23.5t113.5 -65.5 t71.5 -101.5t25.5 -133.5q0 -100 -60.5 -182t-193.5 -151z" />
<glyph unicode="'" horiz-adv-x="442" d="M74 1393h295l-31 -506h-234z" />
<glyph unicode="(" horiz-adv-x="614" d="M412 -274q-63 70 -125 154.5t-110 190t-77.5 235.5t-29.5 290t29.5 290t77.5 235.5t109.5 190.5t125.5 154l170 -120q-55 -78 -97.5 -159t-70 -172t-41 -193.5t-13.5 -225.5q0 -121 13.5 -224.5t41 -193.5t69.5 -172t98 -160z" />
<glyph unicode=")" horiz-adv-x="614" d="M33 -154q55 78 97 160t69.5 172t41 193.5t13.5 224.5q0 123 -13.5 225.5t-41 193.5t-69.5 172t-97 159l170 120q63 -70 124.5 -154.5t109.5 -190t78 -235.5t30 -290t-30 -290t-78 -235.5t-109.5 -190.5t-124.5 -154z" />
<glyph unicode="*" horiz-adv-x="870" d="M373 965l-168 -168l-119 204l231 64l-231 63l119 205l168 -168l-60 228h242l-59 -228l168 168l120 -205l-237 -63l237 -64l-120 -204l-168 168l59 -228h-242z" />
<glyph unicode="+" d="M655 158h-247v266h-258v242h258v266h247v-266h258v-242h-258v-266z" />
<glyph unicode="," horiz-adv-x="409" d="M137 10q-45 20 -71.5 57t-26.5 91q0 70 49 114.5t117 44.5q66 0 115 -46t49 -117q0 -47 -18.5 -86t-41.5 -80l-119 -224h-131z" />
<glyph unicode="-" horiz-adv-x="618" d="M74 618h471v-245h-471v245z" />
<glyph unicode="." horiz-adv-x="409" d="M205 -12q-68 0 -117 47t-49 119t49 117.5t117 45.5q66 0 115 -46t49 -117q0 -72 -49 -119t-115 -47z" />
<glyph unicode="/" horiz-adv-x="827" d="M539 1479h270l-571 -1741h-271z" />
<glyph unicode="0" d="M532 227q88 0 135.5 80t47.5 230t-47 227.5t-136 77.5q-86 0 -134 -78t-48 -227q0 -150 48 -230t134 -80zM532 -18q-102 0 -188 39.5t-150.5 111.5t-100.5 174.5t-36 229.5t36 228t100.5 173t150.5 110.5t188 38.5t189.5 -38.5t151 -110.5t99.5 -173t36 -228t-36 -229.5 t-99.5 -174.5t-151 -111.5t-189.5 -39.5z" />
<glyph unicode="1" d="M412 840h-222v229h502v-840h219v-229h-737v229h238v611z" />
<glyph unicode="2" d="M72 25l407 432l76 80q33 35 54.5 64.5t31.5 58t10 61.5q0 53 -34.5 85t-94.5 32q-72 0 -113.5 -48.5t-64.5 -115.5l-258 69q18 82 59 146.5t97.5 108.5t127 66.5t150.5 22.5q106 0 185 -29.5t131.5 -77.5t77 -110.5t24.5 -130.5q0 -98 -60.5 -192t-154.5 -195l-31 -33 q-16 -16 -35.5 -32.5t-40.5 -30.5q-23 -16 -47 -31q31 2 58 4l46 4q24 2 38 3h237v-236h-876v25z" />
<glyph unicode="3" d="M500 -211q-98 0 -174 23.5t-132.5 63.5t-95.5 92t-63 108l241 121q33 -84 86.5 -123t137.5 -39q86 0 136 55t50 156q0 102 -63.5 154.5t-159.5 52.5q-66 0 -100.5 -10.5t-63.5 -26.5l-20 24l231 330q10 16 22.5 31.5t22.5 25.5q10 12 23 23q-18 -4 -39 -6q-18 -2 -41 -3 t-45 -1h-306v229h820v-22l-244 -336q-18 -27 -41 -49q-10 -10 -20 -19q61 -12 118.5 -45t101.5 -84t70.5 -120.5t26.5 -153.5q0 -82 -28.5 -162t-87 -144.5t-148.5 -104.5t-215 -40z" />
<glyph unicode="4" d="M616 399q0 16 1 38t4 42q2 23 6 47l-19 -30l-21 -30q-11 -15 -26 -32l-147 -164l-32 -30q-15 -14 -28 -25q-14 -12 -28 -22q14 0 32 2q16 2 34 3t40 1h184v200zM1018 207v-207h-135v-193h-275v193h-563v182l809 899h29v-874h135z" />
<glyph unicode="5" d="M512 -211q-94 0 -170 22.5t-132 60.5t-96 86t-61 101l242 121q23 -59 72 -102t141 -43q90 0 139 54t49 132q0 86 -54 138.5t-161 52.5q-92 0 -158.5 -32t-113.5 -69l-25 11v747h697v-229h-467v-226q20 12 61 21.5t88 9.5q96 0 175 -33.5t135.5 -91t87 -135.5t30.5 -166 q0 -86 -28.5 -164t-88 -137t-149.5 -94t-213 -35z" />
<glyph unicode="6" d="M535 221q84 0 128 52.5t44 121.5q0 70 -44.5 123t-127.5 53q-82 0 -126 -53t-44 -123t44 -122t126 -52zM537 -18q-90 0 -171 27.5t-142.5 80.5t-97.5 128t-36 171q0 111 40 206t118 204l317 448h312l-271 -383q-16 -23 -39.5 -44t-46.5 -38q-25 -20 -53 -39 q33 16 62.5 26.5t70.5 10.5q80 0 148.5 -26.5t121 -76.5t82 -122t29.5 -160q0 -96 -35 -173t-95 -130t-141 -81.5t-173 -28.5z" />
<glyph unicode="7" d="M602 840h-512v229h891v-22l-539 -1240h-292z" />
<glyph unicode="8" d="M532 225q80 0 125 55.5t45 133.5t-45 134t-125 56t-125 -56t-45 -134t45 -133.5t125 -55.5zM535 815q45 0 73.5 32t28.5 79q0 49 -28.5 79.5t-73.5 30.5t-74 -30.5t-29 -79.5q0 -47 29 -79t74 -32zM305 717q-59 35 -100 91t-41 144q0 57 24.5 112.5t72.5 100.5t116.5 73 t157.5 28q88 0 156.5 -28t116.5 -73t72.5 -100t24.5 -113q0 -88 -41 -144t-100 -91q104 -41 166.5 -123t62.5 -211q0 -90 -36.5 -164t-100 -126t-146.5 -81.5t-178 -29.5q-94 0 -178 29.5t-146.5 81.5t-99 126t-36.5 164q0 129 64.5 211t168.5 123z" />
<glyph unicode="9" d="M530 498q82 0 126 53t44 123t-44 122t-126 52q-84 0 -128 -52.5t-44 -121.5q0 -70 44 -123t128 -53zM459 205q16 23 39.5 44t46.5 38q25 20 53 39q-33 -16 -62.5 -26.5t-70.5 -10.5q-80 0 -148.5 26.5t-121 76.5t-82 121t-29.5 161q0 96 35 173t95 130t141 81.5t173 28.5 q90 0 171 -27.5t142.5 -80.5t97.5 -129t36 -170q0 -111 -40 -206t-118 -204l-328 -463h-311z" />
<glyph unicode=":" horiz-adv-x="409" d="M205 -12q-68 0 -117 47t-49 119t49 117.5t117 45.5q66 0 115 -46t49 -117q0 -72 -49 -119t-115 -47zM205 467q-68 0 -117 46t-49 120q0 72 49 118t117 46q66 0 115 -46t49 -118q0 -74 -49 -120t-115 -46z" />
<glyph unicode=";" horiz-adv-x="409" d="M137 10q-45 20 -71.5 57t-26.5 91q0 70 49 114.5t117 44.5q66 0 115 -46t49 -117q0 -47 -18.5 -86t-41.5 -80l-119 -224h-131zM205 467q-68 0 -117 46t-49 120q0 72 49 118t117 46q66 0 115 -46t49 -118q0 -74 -49 -120t-115 -46z" />
<glyph unicode="&#x37e;" horiz-adv-x="409" d="M137 10q-45 20 -71.5 57t-26.5 91q0 70 49 114.5t117 44.5q66 0 115 -46t49 -117q0 -47 -18.5 -86t-41.5 -80l-119 -224h-131zM205 467q-68 0 -117 46t-49 120q0 72 49 118t117 46q66 0 115 -46t49 -118q0 -74 -49 -120t-115 -46z" />
<glyph unicode="&#x3c;" d="M141 489v21l713 379v-240l-301 -151l301 -152v-240z" />
<glyph unicode="=" d="M143 471h779v-235h-779v235zM143 807h779v-236h-779v236z" />
<glyph unicode="&#x3e;" d="M211 346l301 152l-301 151v240l713 -383v-21l-713 -379v240z" />
<glyph unicode="?" horiz-adv-x="1050" d="M483 -12q-72 0 -123 48t-51 126q0 76 51.5 124t122.5 48q70 0 121 -48t51 -124q0 -78 -51 -126t-121 -48zM356 799h95q125 0 177 58t52 136q0 33 -12.5 63.5t-34 55.5t-54 39t-71.5 14q-86 0 -133 -35.5t-84 -97.5l-221 129q55 123 165.5 186.5t272.5 63.5 q111 0 194.5 -35t142 -93t88.5 -134t30 -156q0 -166 -89.5 -270.5t-259.5 -128.5v-121h-258v326z" />
<glyph unicode="@" horiz-adv-x="1894" d="M950 205q61 0 101.5 53t40.5 131t-40 131t-102 53q-72 0 -112.5 -50t-40.5 -134t40.5 -134t112.5 -50zM977 -424q-193 0 -356.5 56.5t-283.5 163t-188.5 260t-68.5 347.5q0 190 72.5 345t194.5 265.5t281.5 171t336.5 60.5q190 0 346.5 -54t268.5 -154.5t173.5 -241 t61.5 -312.5q0 -242 -98.5 -367.5t-280.5 -125.5q-102 0 -175 33.5t-110 123.5q-45 -88 -116.5 -126.5t-162.5 -38.5q-76 0 -141 29.5t-113.5 82.5t-76 129t-27.5 166t27.5 166t75 130t113 85t138.5 31q86 0 138.5 -34t83.5 -89l-5 102h267v-461q0 -68 21.5 -98.5 t72.5 -30.5q66 0 100.5 68t34.5 221q0 145 -43 251t-124 173.5t-194.5 100t-254.5 32.5t-257 -45t-200 -128t-130 -198.5t-46 -258.5q0 -141 42 -256t123 -196t200.5 -125t275.5 -44q86 0 169 15.5t156 41.5l86 -192q-96 -39 -190 -56.5t-217 -17.5z" />
<glyph unicode="A" horiz-adv-x="1359" d="M848 397l-100 242q-16 37 -31 80l-27 82q-14 43 -26 88l-27 -88l-26 -82q-13 -43 -29 -80l-101 -242h367zM655 1405h25l637 -1405h-301l-66 158h-565l-66 -158h-276z" />
<glyph unicode="B" horiz-adv-x="1249" d="M696 252q88 0 139.5 53t51.5 139t-54.5 138.5t-152.5 52.5h-248v-383h264zM653 879q70 0 112 35.5t42 95.5q0 59 -37 95t-102 36h-236v-262h221zM145 1393h539q98 0 173 -29t127 -78t79 -114.5t27 -139.5q0 -98 -52.5 -162.5t-144.5 -93.5q143 -35 213 -125t70 -221 q0 -92 -32 -171t-92.5 -136t-147.5 -90t-195 -33h-564v1393z" />
<glyph unicode="C" horiz-adv-x="1464" d="M815 -18q-150 0 -281 54t-227 149.5t-152.5 226.5t-56.5 284q0 154 56.5 285t152.5 226.5t227.5 148.5t280.5 53q190 0 326.5 -68.5t230.5 -216.5l-219 -155q-49 80 -133 131t-205 51q-94 0 -172 -35t-133 -95t-86 -143t-31 -182q0 -98 31 -182t86 -145.5t133 -96 t172 -34.5q135 0 217 57t142 147l223 -153q-92 -141 -235.5 -224t-346.5 -83z" />
<glyph unicode="D" horiz-adv-x="1402" d="M559 252q117 0 202 32.5t140 92t82 140.5t27 179t-27 179t-82 140.5t-140 92.5t-202 33h-127v-889h127zM145 1393h428q160 0 295.5 -51.5t232.5 -143.5t151.5 -220t54.5 -282t-54.5 -281.5t-151.5 -220t-231.5 -143.5t-296.5 -51h-428v1393z" />
<glyph unicode="E" horiz-adv-x="1216" d="M145 1393h922v-252h-635v-443h559v-245h-559v-201h664v-252h-951v1393z" />
<glyph unicode="F" horiz-adv-x="1138" d="M145 1393h897v-252h-610v-461h555v-256h-555v-424h-287v1393z" />
<glyph unicode="G" horiz-adv-x="1513" d="M854 -18q-170 0 -309 54t-238.5 149.5t-154 226.5t-54.5 284q0 154 52.5 285t145.5 226.5t224 148.5t289 53q338 0 506 -192l-195 -193q-27 27 -55.5 50.5t-65 39.5t-83 26.5t-107.5 10.5q-94 0 -171 -35t-131 -95t-84 -143t-30 -182q0 -98 31 -182t90 -145.5t144 -96 t196 -34.5q68 0 143.5 12t128.5 39v205h-335v251h598v-602q-31 -25 -82.5 -53.5t-120 -52t-153.5 -39.5t-179 -16z" />
<glyph unicode="H" horiz-adv-x="1460" d="M145 1393h287v-713h596v713h287v-1393h-287v424h-596v-424h-287v1393z" />
<glyph unicode="I" horiz-adv-x="587" d="M152 1393h286v-1393h-286v1393z" />
<glyph unicode="J" horiz-adv-x="1015" d="M457 -18q-86 0 -155 20.5t-121 56t-91 83.5t-63 102l233 141q33 -59 72 -103t112 -44q35 0 64 8t48 28.5t30.5 55.5t11.5 88v975h287v-979q0 -111 -31 -193t-88 -135t-136 -78.5t-173 -25.5z" />
<glyph unicode="K" horiz-adv-x="1329" d="M414 678q25 55 55.5 114.5t62.5 102.5l369 498h326l-467 -631l524 -762h-346l-371 547l-135 -162v-385h-287v1393h287v-482q0 -51 -6 -115.5t-12 -117.5z" />
<glyph unicode="L" horiz-adv-x="1148" d="M145 1393h287v-1141h631v-252h-918v1393z" />
<glyph unicode="M" horiz-adv-x="1699" d="M145 1407h23l686 -754l676 754h24v-1407h-276v522q0 35 1 78t3 80q2 43 6 86l-51 -72l-48 -63l-50 -62l-277 -309h-26l-277 309l-51 62q-27 33 -49 63l-49 72l4 -86q2 -37 4 -80t2 -78v-522h-275v1407z" />
<glyph unicode="N" horiz-adv-x="1435" d="M559 647q-27 25 -55 58l-53 61l-58 72q4 -45 10 -90q4 -39 7.5 -83t3.5 -81v-584h-269v1405h29l703 -660q25 -25 53 -57l53 -61l57 -72q-6 45 -10 90q-4 39 -6 83t-2 81v584h268v-1405h-28z" />
<glyph unicode="O" horiz-adv-x="1638" d="M819 238q94 0 173 34.5t135.5 96t87 145.5t30.5 182t-30.5 182.5t-87 145.5t-135.5 96t-173 35q-96 0 -174 -35t-134 -96t-87 -145t-31 -183q0 -98 31 -182t87 -145.5t134 -96t174 -34.5zM819 -18q-152 0 -282.5 54t-228 149.5t-154 226.5t-56.5 284q0 154 56.5 285 t154 226.5t228.5 149.5t282 54q150 0 282 -54t229 -149.5t153.5 -226.5t56.5 -285t-56.5 -284.5t-153.5 -226t-229 -149.5t-282 -54z" />
<glyph unicode="P" horiz-adv-x="1230" d="M522 569q176 0 256 71t80 214q0 145 -81 216t-255 71h-90v-572h90zM145 1393h385q145 0 261 -37t196 -106.5t123 -170t43 -225.5q0 -127 -43 -226.5t-123 -168t-195.5 -105.5t-261.5 -37h-98v-317h-287v1393z" />
<glyph unicode="Q" horiz-adv-x="1638" d="M795 449l192 157l176 -203q82 117 82 293q0 98 -30.5 182.5t-87 145.5t-135.5 96t-173 35q-96 0 -174 -35t-134 -96t-87 -145t-31 -183q0 -98 31 -182t87 -145.5t134 -96t174 -34.5q80 0 142 20zM1538 -27l-190 -157l-207 237q-72 -35 -153 -53t-169 -18 q-152 0 -282.5 54t-228 149.5t-154 226.5t-56.5 284q0 154 56.5 285t154 226.5t228.5 149.5t282 54q150 0 282 -54t229 -149.5t153.5 -226.5t56.5 -285q0 -150 -52 -276.5t-145 -222.5z" />
<glyph unicode="R" horiz-adv-x="1257" d="M522 596q176 0 256 61.5t80 208.5t-81 211t-255 64h-90v-545h90zM1174 0h-332l-230 352q-41 -6 -82 -6h-98v-346h-287v1393h385q293 0 458 -135.5t165 -391.5q0 -164 -69.5 -268t-198.5 -164z" />
<glyph unicode="S" horiz-adv-x="1099" d="M547 -18q-100 0 -182 22.5t-147.5 61t-114 93t-78.5 115.5l233 136q47 -76 111.5 -125t171.5 -49q90 0 142 39.5t52 101.5q0 74 -55 110.5t-154 79.5l-71 31q-78 33 -141.5 72t-108.5 90t-69.5 116.5t-24.5 153.5q0 80 29.5 149.5t84 121t132 80t173.5 28.5 q137 0 236.5 -52t171.5 -177l-223 -144q-37 66 -80 94.5t-105 28.5q-63 0 -100 -34.5t-37 -88.5q0 -66 42 -99.5t134 -74.5l72 -31q92 -39 162.5 -80.5t119 -94t74 -119t25.5 -156.5q0 -96 -36 -171t-99.5 -126t-150.5 -76.5t-189 -25.5z" />
<glyph unicode="T" horiz-adv-x="1212" d="M463 1141h-397v252h1081v-252h-397v-1141h-287v1141z" />
<glyph unicode="U" horiz-adv-x="1404" d="M705 -18q-121 0 -224.5 31.5t-179.5 97t-119 163t-43 230.5v889h287v-873q0 -154 67.5 -217t211.5 -63q141 0 207.5 63.5t66.5 216.5v873h287v-889q0 -133 -43 -230.5t-119 -163t-178 -97t-221 -31.5z" />
<glyph unicode="V" horiz-adv-x="1359" d="M43 1393h307l240 -537q20 -45 39 -100l35 -103q18 -55 34 -112q14 57 33 112l35 102q18 54 39 101l233 537h279l-610 -1405h-29z" />
<glyph unicode="W" horiz-adv-x="1961" d="M45 1393h303l203 -559l26 -80q13 -43 23 -82l25 -90q12 45 26 90q12 39 27.5 83t32.5 79l268 571h29l272 -571q16 -35 31.5 -79t27.5 -83l27 -90l25 90l22 82q12 43 27 80l200 559h279l-506 -1405h-29l-313 671q-14 29 -28.5 65t-24.5 69l-25 73q-14 -37 -26 -73l-26 -69 q-13 -36 -28 -65l-325 -671h-29z" />
<glyph unicode="X" horiz-adv-x="1351" d="M510 766l-379 627h326l141 -240q16 -27 32 -59l29 -62l31 -69l25 67q10 29 24.5 61.5t30.5 61.5l135 240h305l-372 -629l462 -764h-327l-219 371q-16 27 -33 60l-31 65l-33 71q-12 -37 -26 -71q-12 -31 -27.5 -64t-32.5 -61l-215 -371h-301z" />
<glyph unicode="Y" horiz-adv-x="1396" d="M571 442l-528 951h317l246 -449q20 -37 40 -83l36 -87l37 -94q16 47 35 94l34 86q18 45 39 84l236 449h293l-496 -930v-463h-289v442z" />
<glyph unicode="Z" horiz-adv-x="1208" d="M55 25l639 1116h-526v252h969v-25l-637 -1116h602v-252h-1047v25z" />
<glyph unicode="[" horiz-adv-x="614" d="M84 1479h485v-234h-209v-1274h209v-233h-485v1741z" />
<glyph unicode="\" horiz-adv-x="827" d="M18 1479h271l571 -1741h-270z" />
<glyph unicode="]" horiz-adv-x="614" d="M43 -29h209v1274h-209v234h485v-1741h-485v233z" />
<glyph unicode="^" horiz-adv-x="899" d="M438 1407h23l327 -492h-221l-118 146l-117 -146h-221z" />
<glyph unicode="_" horiz-adv-x="579" d="M-4 -16h588v-246h-588v246z" />
<glyph unicode="`" horiz-adv-x="1024" d="M193 1409h315l106 -385h-208z" />
<glyph unicode="a" horiz-adv-x="999" d="M434 354q-53 0 -76.5 -21.5t-23.5 -58.5q0 -78 119 -77q86 0 128 33.5t42 88.5v35h-189zM623 518q-6 145 -146 146q-78 0 -124 -27t-74 -53l-154 164q31 31 64.5 56t78.5 44.5t101.5 31t134.5 11.5q84 0 155.5 -23.5t125 -71.5t83 -123t29.5 -177v-496h-274l6 121 q-49 -76 -109.5 -107.5t-148.5 -31.5q-59 0 -114.5 14t-98.5 47t-69 85t-26 128q0 139 97.5 200.5t259.5 61.5h203z" />
<glyph unicode="b" horiz-adv-x="1128" d="M573 223q88 0 139.5 55.5t51.5 159.5q0 98 -51 153.5t-140 55.5q-90 0 -143 -55t-53 -154q0 -104 53 -159.5t143 -55.5zM653 -18q-100 0 -168.5 37.5t-105.5 107.5l6 -127h-276v1479h276v-729q43 66 108.5 103.5t165.5 37.5q80 0 151 -33t124 -93t84 -143t31 -184 q0 -100 -32 -184t-86 -144.5t-126 -94t-152 -33.5z" />
<glyph unicode="c" horiz-adv-x="976" d="M555 -18q-102 0 -189 33.5t-151.5 94t-100.5 144.5t-36 184q0 98 36 182.5t100.5 143.5t151.5 93t189 34q131 0 216 -45t151 -129l-197 -160q-25 41 -71 66.5t-99 25.5q-94 0 -144.5 -59.5t-50.5 -151.5q0 -96 50.5 -156.5t144.5 -60.5q66 0 105.5 25.5t70.5 56.5 l187 -164q-66 -72 -149 -114.5t-214 -42.5z" />
<glyph unicode="d" horiz-adv-x="1128" d="M555 223q90 0 143.5 55.5t53.5 159.5q0 98 -53.5 153.5t-143.5 55.5q-88 0 -139 -55t-51 -154q0 -104 51 -159.5t139 -55.5zM475 -18q-80 0 -151.5 33.5t-126 94t-86 144.5t-31.5 184t31.5 183.5t85 143.5t124 93t150.5 33q104 0 167.5 -38t104.5 -103v729h277v-1479 h-277l7 127q-37 -70 -106 -107.5t-169 -37.5z" />
<glyph unicode="e" horiz-adv-x="1101" d="M743 512q-10 72 -55 113t-127 41t-135 -38t-70 -116h387zM360 352q20 -68 76 -104.5t150 -36.5q76 0 131 23.5t88 46.5l158 -170q-63 -55 -149.5 -92t-223.5 -37q-117 0 -211 33.5t-161.5 94t-103.5 144.5t-36 184q0 98 37 182.5t102.5 143.5t152.5 93t189 34 q117 0 207 -41t149.5 -113.5t86.5 -171.5q21 -76 22 -161q0 -25 -2 -52h-662z" />
<glyph unicode="f" horiz-adv-x="782" d="M209 643h-146v229h146v293q0 340 321 340q92 0 157 -27.5t112 -82.5l-150 -185q-16 18 -35.5 32.5t-52.5 14.5q-35 0 -55.5 -20t-20.5 -68v-297h236v-229h-236v-643h-276v643z" />
<glyph unicode="g" horiz-adv-x="1007" d="M322 -66q-25 -29 -25 -67q0 -53 43 -84t158 -31q121 0 159.5 27.5t38.5 68.5q0 37 -29.5 52.5t-115.5 19.5zM498 449q63 0 96 33.5t33 88.5q0 53 -33 85t-96 32t-96 -31.5t-33 -85.5q0 -55 33 -88.5t96 -33.5zM967 874v-196h-129q31 -47 30 -107q0 -70 -25.5 -129 t-73.5 -102t-115.5 -67.5t-151.5 -24.5q-109 0 -178 35q-23 -18 -23 -54q0 -31 21.5 -49t68.5 -20l215 -10q180 -10 276.5 -81t96.5 -200q0 -70 -26.5 -129t-84 -102.5t-149.5 -68t-221 -24.5q-236 0 -352.5 81t-116.5 206q0 72 43 118t116 75q-104 57 -104 176t121 172 q-78 84 -78 198q0 70 27.5 128.5t77 101.5t118 66.5t152.5 23.5q68 0 129 -17h336z" />
<glyph unicode="h" horiz-adv-x="1085" d="M109 1479h276v-744q41 76 109.5 116t160.5 40q143 0 235.5 -100.5t92.5 -286.5v-504h-276v485q0 74 -36 114t-110 40q-84 0 -130 -44t-46 -128v-467h-276v1479z" />
<glyph unicode="i" horiz-adv-x="514" d="M119 872h276v-872h-276v872zM258 1018q-72 0 -124 48t-52 126q0 76 52 124t124 48t123 -48t51 -124q0 -78 -51 -126t-123 -48z" />
<glyph unicode="j" horiz-adv-x="512" d="M82 -455q-78 0 -139.5 33t-92.5 72l138 164q37 -33 67 -33q63 0 64 69v1022h276v-1011q0 -152 -79.5 -234t-233.5 -82zM258 1018q-72 0 -124 48t-52 126q0 76 52 124t124 48t123 -48t51 -124q0 -78 -51 -126t-123 -48z" />
<glyph unicode="k" horiz-adv-x="1011" d="M385 0h-276v1479h276v-754q0 -49 -4 -98t-10 -90l286 335h308l-310 -356l342 -516h-321l-217 330l-74 -78v-252z" />
<glyph unicode="l" horiz-adv-x="503" d="M115 1479h274v-1479h-274v1479z" />
<glyph unicode="m" horiz-adv-x="1617" d="M109 872h276l-6 -135q47 80 108.5 117t139.5 37q168 0 245 -150q53 68 126 109t171 41q166 0 256.5 -102.5t90.5 -282.5v-506h-275v481q0 78 -29.5 118t-107.5 40q-80 0 -117 -41t-37 -131v-467h-274v481q0 78 -29 118t-106 40q-80 0 -118 -41t-38 -131v-467h-276v872z " />
<glyph unicode="n" horiz-adv-x="1085" d="M109 872h276l-6 -143q41 78 112.5 120t163.5 42q143 0 235.5 -100.5t92.5 -286.5v-504h-276v485q0 74 -36 114t-110 40q-84 0 -130 -44t-46 -128v-467h-276v872z" />
<glyph unicode="o" horiz-adv-x="1116" d="M559 215q92 0 144.5 60.5t52.5 158.5t-52.5 158.5t-144.5 60.5t-145.5 -60.5t-53.5 -158.5t53.5 -158.5t145.5 -60.5zM559 -18q-102 0 -189 33.5t-152.5 93t-102.5 143.5t-37 182q0 100 37 184t102.5 144.5t152.5 94.5t189 34q100 0 188.5 -34t153 -94.5t101 -144 t36.5 -184.5q0 -98 -36.5 -182t-101 -143.5t-153 -93t-188.5 -33.5z" />
<glyph unicode="p" horiz-adv-x="1128" d="M573 223q88 0 139.5 55.5t51.5 159.5q0 98 -51 153.5t-140 55.5q-90 0 -143 -55t-53 -154q0 -104 53 -159.5t143 -55.5zM109 872h276l-6 -135q41 72 109.5 113t170.5 41q80 0 151 -33t124 -93t84 -143t31 -184q0 -100 -32 -184t-86 -144.5t-126 -94t-152 -33.5 q-100 0 -166.5 37.5t-101.5 97.5v-551h-276v1306z" />
<glyph unicode="q" horiz-adv-x="1130" d="M555 223q90 0 143.5 55.5t53.5 159.5q0 98 -53.5 153.5t-143.5 55.5q-88 0 -139 -55t-51 -154q0 -104 51 -159.5t139 -55.5zM745 117q-35 -59 -102.5 -97t-167.5 -38q-80 0 -151.5 33.5t-126 94t-86 144.5t-31.5 184t31.5 183.5t85 143.5t124 93t150.5 33q104 0 173 -42 t108 -112l-7 135h277v-1306h-277v551z" />
<glyph unicode="r" horiz-adv-x="802" d="M109 872h276l-4 -157q25 53 54.5 88t63 54.5t68.5 26.5t70 7q43 0 75.5 -10.5t59.5 -24.5l-88 -252q-27 12 -52.5 19.5t-53.5 7.5q-94 0 -143.5 -52.5t-49.5 -191.5v-387h-276v872z" />
<glyph unicode="s" horiz-adv-x="862" d="M442 -18q-152 0 -246 49t-151 116l162 144q45 -43 100 -67.5t117 -24.5q68 0 93.5 12t25.5 41q0 18 -11.5 28.5t-35 17.5t-60.5 15.5t-90 22.5q-45 12 -90 30.5t-81 51.5t-58.5 81t-22.5 115q0 74 26.5 126.5t73 86t107.5 49t131 15.5q109 0 186.5 -33t131.5 -88 l-148 -158q-31 27 -75 46.5t-93 19.5q-94 0 -94 -51q0 -37 42 -49.5t132 -32.5q47 -10 98.5 -28.5t93.5 -49.5t68.5 -78t26.5 -117q0 -59 -17.5 -112.5t-59.5 -93t-111 -62t-171 -22.5z" />
<glyph unicode="t" horiz-adv-x="782" d="M496 -23q-66 0 -122.5 17.5t-96 59.5t-62 108.5t-22.5 165.5v315h-130v229h130v455h274v-455h223v-229h-223v-324q0 -66 19.5 -86t52.5 -20q35 0 58.5 13.5t37.5 23.5l104 -193q-33 -27 -90 -53.5t-153 -26.5z" />
<glyph unicode="u" horiz-adv-x="1081" d="M428 -18q-143 0 -234.5 100t-91.5 287v503h277v-485q0 -74 36 -115t109 -41q84 0 128 45.5t44 129.5v466h277v-872h-277l6 143q-41 -78 -111.5 -119.5t-162.5 -41.5z" />
<glyph unicode="v" horiz-adv-x="1003" d="M18 872h306l122 -260q16 -35 29 -74l23 -75l20 -82q8 41 19 82l21 75q11 40 28 74l119 260h280l-467 -890h-26z" />
<glyph unicode="w" horiz-adv-x="1411" d="M18 872h306l100 -247l21 -63l22 -62l20 -70l21 70l22 62q12 34 29 63l143 270h21l151 -270q14 -27 29 -61t25 -62q12 -37 22 -72l21 70q10 29 20 62.5t23 62.5l102 247h277l-408 -895h-24l-189 351q-14 23 -24 53l-19 57q-8 31 -18 64l-21 -64l-21 -58q-11 -30 -24 -52 l-201 -351h-22z" />
<glyph unicode="x" horiz-adv-x="1046" d="M369 457l-293 415h325l72 -108l23 -41q12 -23 22 -45l21 -49l20 49l21 45q10 23 22 41l70 108h295l-289 -393l336 -479h-328l-100 150q-14 20 -28.5 46.5t-25.5 51.5q-14 29 -26 57l-27 -57l-25 -51q-13 -27 -28 -47l-98 -150h-295z" />
<glyph unicode="y" horiz-adv-x="1003" d="M365 82l-347 790h306l125 -335q10 -31 21 -70l22 -74q10 -41 18 -82l16 82q8 35 19.5 74t23.5 70l136 335h280l-571 -1306h-277z" />
<glyph unicode="z" horiz-adv-x="905" d="M47 23l379 626h-332v223h754v-22l-387 -627h354v-223h-768v23z" />
<glyph unicode="{" horiz-adv-x="614" d="M475 -262q-61 0 -119.5 13t-103.5 47t-72.5 91.5t-27.5 143.5v278q0 72 -29 103.5t-88 31.5h-37v234h37q59 0 88 31.5t29 103.5v369q0 86 27.5 143t72.5 91t103.5 47.5t119.5 13.5h96v-234h-71q-43 0 -56.5 -17.5t-13.5 -51.5v-396q0 -111 -53 -156.5t-137 -60.5 q84 -14 137 -60t53 -157v-305q0 -35 13.5 -52.5t56.5 -17.5h71v-233h-96z" />
<glyph unicode="|" horiz-adv-x="569" d="M152 1479h266v-1741h-266v1741z" />
<glyph unicode="}" horiz-adv-x="614" d="M43 -29h72q43 0 56 17.5t13 52.5v305q0 111 53.5 157t137.5 60q-84 14 -137.5 60.5t-53.5 156.5v396q0 35 -13 52t-56 17h-72v234h96q61 0 119.5 -13.5t104 -47.5t73 -91t27.5 -143v-369q0 -72 28.5 -103.5t88.5 -31.5h36v-234h-36q-59 0 -88 -31.5t-29 -103.5v-278 q0 -86 -27.5 -143.5t-73 -91.5t-103.5 -47t-120 -13h-96v233z" />
<glyph unicode="~" horiz-adv-x="835" d="M68 438q8 145 71.5 216t155.5 71q41 0 72.5 -12.5t56.5 -28.5l55.5 -37t42.5 -14q29 0 42.5 22.5t17.5 69.5l186 -18q-8 -145 -71.5 -216t-155.5 -71q-41 0 -73 12t-56 29l-56 37q-20 14 -43 14q-51 0 -59 -92z" />
<glyph unicode="&#xa1;" horiz-adv-x="579" d="M444 0h-309l45 920h219zM289 1405q72 0 123 -48t51 -126q0 -76 -51.5 -124t-122.5 -48q-70 0 -121 48t-51 124q0 78 51 126t121 48z" />
<glyph unicode="&#xa2;" d="M522 645q-66 -23 -98.5 -77t-32.5 -130q0 -78 33 -134t98 -79v420zM522 -14q-88 12 -162.5 50t-129 96t-85 136t-30.5 170q0 90 30.5 167t85 135.5t129 96t162.5 50.5v221h137v-221q104 -10 176 -54.5t132 -115.5l-193 -156q-16 29 -47 51.5t-68 32.5v-424q41 10 70 32.5 t51 45.5l183 -160q-57 -63 -128 -104t-176 -51v-222h-137v224z" />
<glyph unicode="&#xa3;" d="M358 209q-25 23 -48 35t-50 12q-29 0 -45 -15.5t-16 -41.5q0 -27 17 -42.5t46 -15.5q37 0 60.5 19.5t35.5 48.5zM113 502v209h102q-16 45 -27.5 90t-11.5 90q0 78 26.5 146.5t79 118.5t129 80t179.5 30q147 0 239.5 -60.5t147.5 -173.5l-227 -129q-31 61 -65 89t-95 28 q-59 0 -97 -37t-38 -113q0 -39 9 -78.5t23 -80.5h261v-209h-187q16 -51 26.5 -103.5t10.5 -109.5q0 -16 -2 -25q35 -18 72 -30.5t77 -12.5q53 0 82 15.5t64 52.5l162 -166q-55 -76 -127 -108.5t-168 -32.5q-82 0 -143.5 27.5t-110.5 64.5q-41 -41 -99.5 -66.5t-125.5 -25.5 q-129 0 -200 63.5t-71 161.5t66.5 153.5t158.5 55.5q59 0 113 -19q-14 47 -41 105h-192z" />
<glyph unicode="&#xa4;" d="M43 580v176h131q55 150 177 240.5t286 90.5q137 0 231.5 -49t163.5 -147l-192 -152q-41 57 -86 86t-117 29q-119 0 -176 -98h227v-176h-272q-2 -10 -2 -22v-21v-22q0 -11 2 -21h272v-177h-231q53 -100 180 -100q80 0 125 37t78 90l209 -131q-59 -104 -155.5 -167.5 t-252.5 -63.5q-82 0 -154.5 24.5t-133 68.5t-106.5 106.5t-73 135.5h-131v177h94q-2 10 -2 21v22v21q0 11 2 22h-94z" />
<glyph unicode="&#xa5;" d="M672 385v-12h319v-176h-319v-197h-281v197h-319v176h319v14l-51 100h-268v177h176l-211 405h307l137 -295q16 -35 27.5 -69.5t19.5 -63.5l15 -63q6 29 14 63q8 29 20.5 63.5t28.5 69.5l139 295h283l-211 -405h174v-177h-266z" />
<glyph unicode="&#xa6;" horiz-adv-x="497" d="M256 354q-72 0 -123 48.5t-51 125.5q0 76 51 124t123 48q70 0 121 -48t51 -124q0 -78 -51 -126t-121 -48z" />
<glyph unicode="&#xa7;" d="M705 354q59 29 59 86q0 41 -24.5 69t-82.5 50l-211 80q-23 8 -43 17.5t-38 19.5q-53 -25 -54 -86q0 -41 20.5 -69.5t80.5 -51.5l198 -74q50 -18 95 -41zM518 -211q-76 0 -142.5 18.5t-118.5 48t-88 69.5t-54 83l215 113q23 -47 63.5 -78t110.5 -31q57 0 85.5 16.5 t28.5 45.5q0 25 -15 43t-62 35l-193 73q-154 59 -222.5 133t-68.5 189q0 90 55.5 145.5t131.5 83.5q-61 78 -62 182q0 68 27 125.5t74 97.5t111.5 62.5t140.5 22.5q139 0 223 -52.5t139 -156.5l-219 -107q-23 41 -52.5 67.5t-78.5 26.5q-57 0 -81 -23.5t-24 -51.5 q0 -33 16.5 -54.5t59.5 -37.5l211 -78q143 -53 216 -128t73 -182q0 -92 -48 -149t-126 -92q25 -35 38 -76t13 -94q0 -135 -98.5 -212t-278.5 -77z" />
<glyph unicode="&#xa8;" horiz-adv-x="1024" d="M289 1036q-31 0 -58.5 12.5t-49 34t-35 49t-13.5 60.5t13.5 60.5t35 49t49 34t58.5 12.5q61 0 108 -45.5t47 -110.5q0 -66 -47 -111t-108 -45zM735 1036q-31 0 -58.5 12.5t-49 34t-34.5 49t-13 60.5t13 60.5t34.5 49t49.5 34t58 12.5q61 0 108.5 -45.5t47.5 -110.5 q0 -66 -47.5 -111t-108.5 -45z" />
<glyph unicode="&#xa9;" horiz-adv-x="1216" d="M623 238q-70 0 -127.5 22.5t-99.5 62t-65.5 95t-23.5 121.5q0 68 23.5 123t64.5 96t97.5 63.5t121.5 22.5q94 0 155.5 -35t98.5 -76l-145 -135q-35 45 -90 45q-47 0 -69.5 -28.5t-22.5 -75.5q0 -43 24.5 -74t71.5 -31q35 0 56.5 13.5t31.5 29.5l147 -129 q-37 -43 -96 -76.5t-153 -33.5zM612 111q86 0 162 30.5t132.5 86t90 134t33.5 177.5q0 98 -33.5 177t-90 134t-132.5 86t-162 31q-88 0 -164.5 -31t-135 -86t-92.5 -134t-34 -177t34 -177t92.5 -134.5t135 -86t164.5 -30.5zM612 -10q-111 0 -211 41t-175.5 114.5t-121 174 t-45.5 219.5t45.5 219t121 174t176 114.5t210.5 40.5q109 0 208.5 -40.5t174 -114.5t118.5 -174.5t44 -218.5q0 -119 -44 -219.5t-118.5 -174t-174 -114.5t-208.5 -41z" />
<glyph unicode="&#xaa;" horiz-adv-x="876" d="M385 623q-41 0 -57.5 -17.5t-16.5 -42.5q0 -23 19.5 -40t64.5 -17q74 0 105.5 28.5t31.5 67.5v21h-147zM532 770q-4 59 -33.5 86t-82.5 27q-68 0 -105 -22.5t-61 -45.5l-150 141q23 23 52.5 46.5t70.5 42t95.5 30.5t127.5 12q68 0 128.5 -19t106.5 -59t73.5 -103.5 t27.5 -149.5v-424h-250l7 92q-35 -53 -88.5 -82t-122.5 -29q-53 0 -101.5 14.5t-84.5 43t-57.5 71.5t-21.5 103q0 115 85 170t214 55h170z" />
<glyph unicode="&#xab;" horiz-adv-x="1032" d="M66 410v16l194 338h266l-200 -346l200 -352h-266zM506 410v16l194 338h267l-201 -346l201 -352h-267z" />
<glyph unicode="&#xac;" horiz-adv-x="497" d="M256 354q-72 0 -123 48.5t-51 125.5q0 76 51 124t123 48q70 0 121 -48t51 -124q0 -78 -51 -126t-121 -48z" />
<glyph unicode="&#xad;" horiz-adv-x="618" d="M74 618h471v-245h-471v245z" />
<glyph unicode="&#xae;" horiz-adv-x="1030" d="M535 961q14 0 32.5 11t18.5 46q0 29 -18.5 41t-32.5 12h-60v-110h60zM721 743h-139l-56 111h-51v-111h-135v445h190q90 0 139.5 -50.5t49.5 -113.5q0 -41 -17.5 -80t-56.5 -63zM512 616q76 0 139.5 24t110.5 69t73.5 108.5t26.5 143.5q0 84 -26.5 149.5t-73.5 110.5 t-110.5 68.5t-139.5 23.5q-74 0 -137.5 -23.5t-109.5 -68.5t-71.5 -111t-25.5 -149q0 -80 25.5 -143.5t71.5 -108.5t109.5 -69t137.5 -24zM512 518q-94 0 -176 33t-143.5 92t-97.5 141t-36 181q0 98 36 180t97.5 141.5t143.5 92t176 32.5t178 -32.5t146.5 -92t98.5 -141.5 t36 -180t-36 -180.5t-98.5 -141.5t-146.5 -92t-178 -33z" />
<glyph unicode="&#xaf;" horiz-adv-x="1024" d="M262 1280h500v-203h-500v203z" />
<glyph unicode="&#x2c9;" horiz-adv-x="1024" d="M262 1280h500v-203h-500v203z" />
<glyph unicode="&#xb0;" horiz-adv-x="716" d="M358 713q45 0 74 29.5t29 76.5t-29 76t-74 29t-73.5 -29t-28.5 -76t28.5 -76.5t73.5 -29.5zM358 549q-59 0 -110 21.5t-91 58.5t-62.5 86t-22.5 104q0 57 22.5 106.5t62.5 85.5t91 56t110 20t111.5 -20t91.5 -56t61.5 -85t22.5 -107q0 -55 -22.5 -104t-61.5 -86 t-91.5 -58.5t-111.5 -21.5z" />
<glyph unicode="&#xb2;" horiz-adv-x="497" d="M256 354q-72 0 -123 48.5t-51 125.5q0 76 51 124t123 48q70 0 121 -48t51 -124q0 -78 -51 -126t-121 -48z" />
<glyph unicode="&#xb3;" horiz-adv-x="497" d="M256 354q-72 0 -123 48.5t-51 125.5q0 76 51 124t123 48q70 0 121 -48t51 -124q0 -78 -51 -126t-121 -48z" />
<glyph unicode="&#xb4;" horiz-adv-x="1024" d="M516 1409h315l-213 -385h-208z" />
<glyph unicode="&#xb5;" horiz-adv-x="497" d="M256 354q-72 0 -123 48.5t-51 125.5q0 76 51 124t123 48q70 0 121 -48t51 -124q0 -78 -51 -126t-121 -48z" />
<glyph unicode="&#x3bc;" horiz-adv-x="497" d="M256 354q-72 0 -123 48.5t-51 125.5q0 76 51 124t123 48q70 0 121 -48t51 -124q0 -78 -51 -126t-121 -48z" />
<glyph unicode="&#xb6;" horiz-adv-x="1449" d="M625 737v416h-60q-80 0 -138 -49t-58 -158q0 -111 58 -160t138 -49h60zM625 498h-68q-121 0 -213 34.5t-153.5 95t-93 140.5t-31.5 170q0 88 31.5 170t93 145.5t153.5 101.5t213 38h748v-1393h-273v1153h-135v-1153h-272v498z" />
<glyph unicode="&#xb7;" horiz-adv-x="509" d="M256 354q-72 0 -123 48.5t-51 125.5q0 76 51 124t123 48q70 0 121 -48t51 -124q0 -78 -51 -126t-121 -48z" />
<glyph unicode="&#x2219;" horiz-adv-x="509" d="M256 354q-72 0 -123 48.5t-51 125.5q0 76 51 124t123 48q70 0 121 -48t51 -124q0 -78 -51 -126t-121 -48z" />
<glyph unicode="&#xb8;" horiz-adv-x="1024" d="M530 -492q-96 0 -153.5 35t-87.5 88l131 80q12 -23 32.5 -40t55.5 -17q29 0 51.5 17.5t22.5 52.5t-23.5 52t-60.5 17h-70v207h141v-80q35 -6 68 -22.5t58.5 -43t41 -63.5t15.5 -84t-19.5 -83t-50.5 -62.5t-71 -40t-81 -13.5z" />
<glyph unicode="&#xb9;" horiz-adv-x="497" d="M256 354q-72 0 -123 48.5t-51 125.5q0 76 51 124t123 48q70 0 121 -48t51 -124q0 -78 -51 -126t-121 -48z" />
<glyph unicode="&#xba;" horiz-adv-x="980" d="M492 522q72 0 112.5 48t40.5 130q0 78 -41 126t-112 48q-72 0 -112 -48t-40 -126q0 -82 40 -130t112 -48zM492 311q-86 0 -161 29t-131.5 81t-88 123.5t-31.5 155.5q0 82 31.5 154t88 123t131.5 80.5t161 29.5t160.5 -29.5t130 -80.5t87 -123t31.5 -154 q0 -84 -31.5 -155.5t-87 -123.5t-130 -81t-160.5 -29z" />
<glyph unicode="&#xbb;" horiz-adv-x="1032" d="M266 412l-200 352h266l194 -344v-17l-194 -337h-266zM707 412l-201 352h266l195 -344v-17l-195 -337h-266z" />
<glyph unicode="&#xbc;" horiz-adv-x="497" d="M256 354q-72 0 -123 48.5t-51 125.5q0 76 51 124t123 48q70 0 121 -48t51 -124q0 -78 -51 -126t-121 -48z" />
<glyph unicode="&#xbd;" horiz-adv-x="497" d="M256 354q-72 0 -123 48.5t-51 125.5q0 76 51 124t123 48q70 0 121 -48t51 -124q0 -78 -51 -126t-121 -48z" />
<glyph unicode="&#xbe;" horiz-adv-x="497" d="M256 354q-72 0 -123 48.5t-51 125.5q0 76 51 124t123 48q70 0 121 -48t51 -124q0 -78 -51 -126t-121 -48z" />
<glyph unicode="&#xbf;" horiz-adv-x="1050" d="M694 594h-94q-63 0 -106 -16.5t-71 -43t-40 -61.5t-12 -74q0 -33 12 -63.5t33.5 -55t53.5 -39t73 -14.5q86 0 133 36t84 97l221 -129q-55 -123 -165.5 -186t-272.5 -63q-111 0 -195 34.5t-142.5 93t-88 134t-29.5 155.5q0 166 89 270.5t259 129.5v121h258v-326zM567 1405 q72 0 123 -48t51 -126q0 -76 -51 -124t-123 -48q-70 0 -121 48t-51 124q0 78 51 126t121 48z" />
<glyph unicode="&#xc0;" horiz-adv-x="1359" d="M848 397l-100 242q-16 37 -31 80l-27 82q-14 43 -26 88l-27 -88l-26 -82q-13 -43 -29 -80l-101 -242h367zM655 1405h25l637 -1405h-301l-66 158h-565l-66 -158h-276zM360 1917h316l106 -385h-209z" />
<glyph unicode="&#xc1;" horiz-adv-x="1359" d="M848 397l-100 242q-16 37 -31 80l-27 82q-14 43 -26 88l-27 -88l-26 -82q-13 -43 -29 -80l-101 -242h367zM655 1405h25l637 -1405h-301l-66 158h-565l-66 -158h-276zM674 1917h315l-213 -385h-209z" />
<glyph unicode="&#xc2;" horiz-adv-x="1359" d="M848 397l-100 242q-16 37 -31 80l-27 82q-14 43 -26 88l-27 -88l-26 -82q-13 -43 -29 -80l-101 -242h367zM655 1405h25l637 -1405h-301l-66 158h-565l-66 -158h-276zM655 1974h23l326 -442h-222l-114 133l-117 -133h-221z" />
<glyph unicode="&#xc3;" horiz-adv-x="1359" d="M848 397l-100 242q-16 37 -31 80l-27 82q-14 43 -26 88l-27 -88l-26 -82q-13 -43 -29 -80l-101 -242h367zM655 1405h25l637 -1405h-301l-66 158h-565l-66 -158h-276zM313 1550q8 145 72 216t156 71q41 0 72.5 -12.5t56.5 -28.5l55 -37q20 -14 43 -14q29 0 42 22.5 t17 69.5l187 -18q-8 -145 -71.5 -216t-156.5 -71q-41 0 -72.5 12t-56.5 29l-55 37q-20 14 -43 14q-51 0 -59 -92z" />
<glyph unicode="&#xc4;" horiz-adv-x="1359" d="M848 397l-100 242q-16 37 -31 80l-27 82q-14 43 -26 88l-27 -88l-26 -82q-13 -43 -29 -80l-101 -242h367zM655 1405h25l637 -1405h-301l-66 158h-565l-66 -158h-276zM457 1544q-31 0 -58.5 12.5t-49 34t-35 49t-13.5 60.5t13.5 60.5t35 49t49 33.5t58.5 12q61 0 108 -45 t47 -110q0 -66 -47 -111t-108 -45zM903 1544q-31 0 -58.5 12.5t-49 34t-34.5 49t-13 60.5t13 60.5t34.5 49t49 33.5t58.5 12q61 0 108.5 -45t47.5 -110q0 -66 -47.5 -111t-108.5 -45z" />
<glyph unicode="&#xc5;" horiz-adv-x="1359" d="M848 397l-100 242q-16 37 -31 80l-27 82q-14 43 -26 88l-27 -88l-26 -82q-13 -43 -29 -80l-101 -242h367zM680 1630q37 0 62.5 23.5t25.5 68.5t-25.5 69t-62.5 24t-62.5 -24t-25.5 -69t25.5 -68.5t62.5 -23.5zM655 1405h25l637 -1405h-301l-66 158h-565l-66 -158h-276z M680 1479q-55 0 -104.5 19.5t-84 53t-55 77.5t-20.5 93t20.5 94.5t55 78t84 52t104.5 19.5t104.5 -19.5t84 -52t55 -77.5t20.5 -95q0 -49 -20.5 -93t-55 -77.5t-84 -53t-104.5 -19.5z" />
<glyph unicode="&#xc6;" horiz-adv-x="2027" d="M956 406v397q0 31 3.5 65.5t7.5 63.5q4 35 10 67q-12 -31 -27 -61q-12 -27 -28.5 -57.5l-32.5 -57.5l-281 -417h348zM987 1393h891v-252h-635v-443h559v-245h-559v-201h664v-252h-951v158h-516l-106 -158h-303z" />
<glyph unicode="&#xc7;" horiz-adv-x="1486" d="M705 -10q-129 18 -241 78.5t-193 153.5t-127 214t-46 260q0 154 56.5 285t152.5 226.5t227.5 148.5t280.5 53q190 0 326.5 -68.5t230.5 -216.5l-219 -155q-49 80 -133 131t-205 51q-94 0 -172 -35t-133 -95t-86 -143t-31 -182q0 -98 31 -182t86 -145.5t133 -96t172 -34.5 q135 0 217 57t142 147l223 -153q-88 -135 -224.5 -217t-326.5 -90v-62q35 -6 67.5 -22.5t58 -43t41 -63.5t15.5 -84t-19.5 -83t-50 -62.5t-70.5 -40t-81 -13.5q-96 0 -153.5 35t-88.5 88l131 80q12 -23 33 -40t55 -17q29 0 51.5 17.5t22.5 52.5t-23.5 52t-60.5 17h-69v197z " />
<glyph unicode="&#xc8;" horiz-adv-x="1216" d="M145 1393h922v-252h-635v-443h559v-245h-559v-201h664v-252h-951v1393zM315 1917h316l106 -385h-209z" />
<glyph unicode="&#xc9;" horiz-adv-x="1216" d="M145 1393h922v-252h-635v-443h559v-245h-559v-201h664v-252h-951v1393zM610 1917h316l-213 -385h-209z" />
<glyph unicode="&#xca;" horiz-adv-x="1216" d="M145 1393h922v-252h-635v-443h559v-245h-559v-201h664v-252h-951v1393zM602 1974h23l325 -442h-221l-115 133l-116 -133h-222z" />
<glyph unicode="&#xcb;" horiz-adv-x="1216" d="M145 1393h922v-252h-635v-443h559v-245h-559v-201h664v-252h-951v1393zM389 1544q-31 0 -58.5 12.5t-49 34t-35 49t-13.5 60.5t13.5 60.5t35 49t49 33.5t58.5 12q61 0 108.5 -45t47.5 -110q0 -66 -47.5 -111t-108.5 -45zM836 1544q-31 0 -58.5 12.5t-49 34t-35 49 t-13.5 60.5t13.5 60.5t35 49t49 33.5t58.5 12q61 0 108 -45t47 -110q0 -66 -47 -111t-108 -45z" />
<glyph unicode="&#xcc;" horiz-adv-x="587" d="M152 1393h286v-1393h-286v1393zM-27 1917h316l106 -385h-209z" />
<glyph unicode="&#xcd;" horiz-adv-x="587" d="M152 1393h286v-1393h-286v1393zM297 1917h315l-213 -385h-209z" />
<glyph unicode="&#xce;" horiz-adv-x="587" d="M152 1393h286v-1393h-286v1393zM281 1974h22l326 -442h-221l-115 133l-117 -133h-221z" />
<glyph unicode="&#xcf;" horiz-adv-x="587" d="M152 1393h286v-1393h-286v1393zM70 1544q-31 0 -58.5 12.5t-49 34t-35 49t-13.5 60.5t13.5 60.5t35 49t49 33.5t58.5 12q61 0 108 -45t47 -110q0 -66 -47 -111t-108 -45zM516 1544q-31 0 -58.5 12.5t-49 34t-35 49t-13.5 60.5t13.5 60.5t35 49t49 33.5t58.5 12 q61 0 108.5 -45t47.5 -110q0 -66 -47.5 -111t-108.5 -45z" />
<glyph unicode="&#xd0;" horiz-adv-x="1402" d="M559 252q117 0 202 32.5t140 92t82 140.5t27 179t-27 179t-82 140.5t-140 92.5t-202 33h-127v-406h309v-248h-309v-235h127zM145 487h-120v248h120v658h428q160 0 295.5 -51.5t232.5 -143.5t151.5 -220t54.5 -282t-54.5 -281.5t-151.5 -220t-231.5 -143.5t-296.5 -51 h-428v487z" />
<glyph unicode="&#xd1;" horiz-adv-x="1435" d="M559 647q-27 25 -55 58l-53 61l-58 72q4 -45 10 -90q4 -39 7.5 -83t3.5 -81v-584h-269v1405h29l703 -660q25 -25 53 -57l53 -61l57 -72q-6 45 -10 90q-4 39 -6 83t-2 81v584h268v-1405h-28zM367 1550q8 145 71.5 216t155.5 71q41 0 72.5 -12.5t56.5 -28.5l55 -37 q20 -14 43 -14q29 0 42.5 22.5t17.5 69.5l186 -18q-8 -145 -71.5 -216t-155.5 -71q-41 0 -73 12t-56 29l-56 37q-20 14 -43 14q-51 0 -59 -92z" />
<glyph unicode="&#xd2;" horiz-adv-x="1638" d="M819 238q94 0 173 34.5t135.5 96t87 145.5t30.5 182t-30.5 182.5t-87 145.5t-135.5 96t-173 35q-96 0 -174 -35t-134 -96t-87 -145t-31 -183q0 -98 31 -182t87 -145.5t134 -96t174 -34.5zM819 -18q-152 0 -282.5 54t-228 149.5t-154 226.5t-56.5 284q0 154 56.5 285 t154 226.5t228.5 149.5t282 54q150 0 282 -54t229 -149.5t153.5 -226.5t56.5 -285t-56.5 -284.5t-153.5 -226t-229 -149.5t-282 -54zM500 1917h315l107 -385h-209z" />
<glyph unicode="&#xd3;" horiz-adv-x="1638" d="M819 238q94 0 173 34.5t135.5 96t87 145.5t30.5 182t-30.5 182.5t-87 145.5t-135.5 96t-173 35q-96 0 -174 -35t-134 -96t-87 -145t-31 -183q0 -98 31 -182t87 -145.5t134 -96t174 -34.5zM819 -18q-152 0 -282.5 54t-228 149.5t-154 226.5t-56.5 284q0 154 56.5 285 t154 226.5t228.5 149.5t282 54q150 0 282 -54t229 -149.5t153.5 -226.5t56.5 -285t-56.5 -284.5t-153.5 -226t-229 -149.5t-282 -54zM823 1917h316l-213 -385h-209z" />
<glyph unicode="&#xd4;" horiz-adv-x="1638" d="M819 238q94 0 173 34.5t135.5 96t87 145.5t30.5 182t-30.5 182.5t-87 145.5t-135.5 96t-173 35q-96 0 -174 -35t-134 -96t-87 -145t-31 -183q0 -98 31 -182t87 -145.5t134 -96t174 -34.5zM819 -18q-152 0 -282.5 54t-228 149.5t-154 226.5t-56.5 284q0 154 56.5 285 t154 226.5t228.5 149.5t282 54q150 0 282 -54t229 -149.5t153.5 -226.5t56.5 -285t-56.5 -284.5t-153.5 -226t-229 -149.5t-282 -54zM807 1974h22l326 -442h-221l-115 133l-117 -133h-221z" />
<glyph unicode="&#xd5;" horiz-adv-x="1638" d="M819 238q94 0 173 34.5t135.5 96t87 145.5t30.5 182t-30.5 182.5t-87 145.5t-135.5 96t-173 35q-96 0 -174 -35t-134 -96t-87 -145t-31 -183q0 -98 31 -182t87 -145.5t134 -96t174 -34.5zM819 -18q-152 0 -282.5 54t-228 149.5t-154 226.5t-56.5 284q0 154 56.5 285 t154 226.5t228.5 149.5t282 54q150 0 282 -54t229 -149.5t153.5 -226.5t56.5 -285t-56.5 -284.5t-153.5 -226t-229 -149.5t-282 -54zM469 1550q8 145 71.5 216t155.5 71q41 0 73 -12.5t56 -28.5l56 -37q20 -14 43 -14q29 0 42 22.5t17 69.5l186 -18q-8 -145 -71.5 -216 t-155.5 -71q-41 0 -72.5 12t-56.5 29l-55 37q-20 14 -43 14q-51 0 -60 -92z" />
<glyph unicode="&#xd6;" horiz-adv-x="1638" d="M819 238q94 0 173 34.5t135.5 96t87 145.5t30.5 182t-30.5 182.5t-87 145.5t-135.5 96t-173 35q-96 0 -174 -35t-134 -96t-87 -145t-31 -183q0 -98 31 -182t87 -145.5t134 -96t174 -34.5zM819 -18q-152 0 -282.5 54t-228 149.5t-154 226.5t-56.5 284q0 154 56.5 285 t154 226.5t228.5 149.5t282 54q150 0 282 -54t229 -149.5t153.5 -226.5t56.5 -285t-56.5 -284.5t-153.5 -226t-229 -149.5t-282 -54zM596 1544q-31 0 -58.5 12.5t-49 34t-35 49t-13.5 60.5t13.5 60.5t35 49t49 33.5t58.5 12q61 0 108.5 -45t47.5 -110q0 -66 -47.5 -111 t-108.5 -45zM1042 1544q-31 0 -58.5 12.5t-49 34t-34.5 49t-13 60.5t13 60.5t34.5 49t49.5 33.5t58 12q61 0 108.5 -45t47.5 -110q0 -66 -47.5 -111t-108.5 -45z" />
<glyph unicode="&#xd7;" d="M317 162l-167 168l215 215l-215 215l167 168l215 -215l216 215l167 -168l-215 -215l215 -215l-167 -168l-216 215z" />
<glyph unicode="&#xd8;" horiz-adv-x="1638" d="M819 236q94 0 173 35.5t136.5 97t88 145.5t30.5 182q0 119 -41 213l-631 -602q103 -71 244 -71zM1063 1083q-102 74 -244 74q-96 0 -174 -36t-135 -97t-88 -145t-31 -183q0 -121 43 -215zM74 137l151 144q-59 88 -93 192.5t-34 222.5q0 154 56.5 285t154 226.5 t228.5 149.5t282 54q125 0 235.5 -37t202.5 -104l148 141l160 -158l-152 -143q59 -86 93 -190.5t34 -223.5q0 -154 -56.5 -284.5t-153.5 -226t-229 -149.5t-282 -54q-123 0 -233.5 36.5t-202.5 102.5q-29 -29 -56.5 -53.5t-47.5 -44.5l-46 -43z" />
<glyph unicode="&#xd9;" horiz-adv-x="1404" d="M705 -18q-121 0 -224.5 31.5t-179.5 97t-119 163t-43 230.5v889h287v-873q0 -154 67.5 -217t211.5 -63q141 0 207.5 63.5t66.5 216.5v873h287v-889q0 -133 -43 -230.5t-119 -163t-178 -97t-221 -31.5zM383 1917h315l107 -385h-209z" />
<glyph unicode="&#xda;" horiz-adv-x="1404" d="M705 -18q-121 0 -224.5 31.5t-179.5 97t-119 163t-43 230.5v889h287v-873q0 -154 67.5 -217t211.5 -63q141 0 207.5 63.5t66.5 216.5v873h287v-889q0 -133 -43 -230.5t-119 -163t-178 -97t-221 -31.5zM707 1917h315l-213 -385h-209z" />
<glyph unicode="&#xdb;" horiz-adv-x="1404" d="M705 -18q-121 0 -224.5 31.5t-179.5 97t-119 163t-43 230.5v889h287v-873q0 -154 67.5 -217t211.5 -63q141 0 207.5 63.5t66.5 216.5v873h287v-889q0 -133 -43 -230.5t-119 -163t-178 -97t-221 -31.5zM690 1974h23l325 -442h-221l-115 133l-116 -133h-221z" />
<glyph unicode="&#xdc;" horiz-adv-x="1404" d="M705 -18q-121 0 -224.5 31.5t-179.5 97t-119 163t-43 230.5v889h287v-873q0 -154 67.5 -217t211.5 -63q141 0 207.5 63.5t66.5 216.5v873h287v-889q0 -133 -43 -230.5t-119 -163t-178 -97t-221 -31.5zM479 1544q-31 0 -58.5 12.5t-49 34t-34.5 49t-13 60.5t13 60.5 t34.5 49t49.5 33.5t58 12q61 0 108.5 -45t47.5 -110q0 -66 -47.5 -111t-108.5 -45zM926 1544q-31 0 -58.5 12.5t-49 34t-35 49t-13.5 60.5t13.5 60.5t35 49t49 33.5t58.5 12q61 0 108 -45t47 -110q0 -66 -47 -111t-108 -45z" />
<glyph unicode="&#xdd;" horiz-adv-x="1396" d="M571 442l-528 951h317l246 -449q20 -37 40 -83l36 -87l37 -94q16 47 35 94l34 86q18 45 39 84l236 449h293l-496 -930v-463h-289v442zM707 1917h315l-213 -385h-209z" />
<glyph unicode="&#xde;" horiz-adv-x="1230" d="M522 420q176 0 256 70.5t80 214.5q0 145 -81 215.5t-255 70.5h-90v-571h90zM145 1393h287v-150h98q145 0 261 -37t196 -106.5t123 -170t43 -224.5q0 -127 -43 -226.5t-123 -168t-195.5 -105.5t-261.5 -37h-98v-168h-287v1393z" />
<glyph unicode="&#xdf;" horiz-adv-x="1191" d="M670 -12q-61 0 -108.5 7t-69.5 15l30 228q23 -8 44.5 -12.5t54.5 -4.5q211 0 210 217q0 133 -81.5 188.5t-214.5 51.5v217q37 4 68.5 16.5t56 36t38 60t13.5 90.5q0 96 -41 138t-117 42t-122 -52t-46 -159v-1067h-276v1059q0 109 32.5 192.5t92 140t141.5 85t178 28.5 q102 0 181 -28.5t132.5 -81t81 -125t27.5 -160.5q0 -104 -43 -174t-117 -111q135 -41 217 -138t82 -257q0 -98 -28.5 -179t-86 -139.5t-140.5 -91t-189 -32.5z" />
<glyph unicode="&#xe0;" horiz-adv-x="999" d="M434 354q-53 0 -76.5 -21.5t-23.5 -58.5q0 -78 119 -77q86 0 128 33.5t42 88.5v35h-189zM623 518q-6 145 -146 146q-78 0 -124 -27t-74 -53l-154 164q31 31 64.5 56t78.5 44.5t101.5 31t134.5 11.5q84 0 155.5 -23.5t125 -71.5t83 -123t29.5 -177v-496h-274l6 121 q-49 -76 -109.5 -107.5t-148.5 -31.5q-59 0 -114.5 14t-98.5 47t-69 85t-26 128q0 139 97.5 200.5t259.5 61.5h203zM207 1409h315l107 -385h-209z" />
<glyph unicode="&#xe1;" horiz-adv-x="999" d="M434 354q-53 0 -76.5 -21.5t-23.5 -58.5q0 -78 119 -77q86 0 128 33.5t42 88.5v35h-189zM623 518q-6 145 -146 146q-78 0 -124 -27t-74 -53l-154 164q31 31 64.5 56t78.5 44.5t101.5 31t134.5 11.5q84 0 155.5 -23.5t125 -71.5t83 -123t29.5 -177v-496h-274l6 121 q-49 -76 -109.5 -107.5t-148.5 -31.5q-59 0 -114.5 14t-98.5 47t-69 85t-26 128q0 139 97.5 200.5t259.5 61.5h203zM481 1409h316l-213 -385h-209z" />
<glyph unicode="&#xe2;" horiz-adv-x="999" d="M434 354q-53 0 -76.5 -21.5t-23.5 -58.5q0 -78 119 -77q86 0 128 33.5t42 88.5v35h-189zM623 518q-6 145 -146 146q-78 0 -124 -27t-74 -53l-154 164q31 31 64.5 56t78.5 44.5t101.5 31t134.5 11.5q84 0 155.5 -23.5t125 -71.5t83 -123t29.5 -177v-496h-274l6 121 q-49 -76 -109.5 -107.5t-148.5 -31.5q-59 0 -114.5 14t-98.5 47t-69 85t-26 128q0 139 97.5 200.5t259.5 61.5h203zM481 1466h23l325 -442h-221l-114 133l-117 -133h-221z" />
<glyph unicode="&#xe3;" horiz-adv-x="999" d="M434 354q-53 0 -76.5 -21.5t-23.5 -58.5q0 -78 119 -77q86 0 128 33.5t42 88.5v35h-189zM623 518q-6 145 -146 146q-78 0 -124 -27t-74 -53l-154 164q31 31 64.5 56t78.5 44.5t101.5 31t134.5 11.5q84 0 155.5 -23.5t125 -71.5t83 -123t29.5 -177v-496h-274l6 121 q-49 -76 -109.5 -107.5t-148.5 -31.5q-59 0 -114.5 14t-98.5 47t-69 85t-26 128q0 139 97.5 200.5t259.5 61.5h203zM133 1042q8 145 71.5 216t155.5 71q41 0 73 -12t56 -29l56 -37q20 -14 43 -14q29 0 42 22.5t17 69.5l187 -18q-8 -145 -72 -216t-156 -71q-41 0 -72.5 12.5 t-56.5 28.5l-55 37q-20 14 -43 14q-51 0 -60 -92z" />
<glyph unicode="&#xe4;" horiz-adv-x="999" d="M434 354q-53 0 -76.5 -21.5t-23.5 -58.5q0 -78 119 -77q86 0 128 33.5t42 88.5v35h-189zM623 518q-6 145 -146 146q-78 0 -124 -27t-74 -53l-154 164q31 31 64.5 56t78.5 44.5t101.5 31t134.5 11.5q84 0 155.5 -23.5t125 -71.5t83 -123t29.5 -177v-496h-274l6 121 q-49 -76 -109.5 -107.5t-148.5 -31.5q-59 0 -114.5 14t-98.5 47t-69 85t-26 128q0 139 97.5 200.5t259.5 61.5h203zM274 1036q-31 0 -58.5 12.5t-49 34t-34.5 49t-13 60.5t13 60.5t34.5 49t49.5 34t58 12.5q61 0 108.5 -45.5t47.5 -110.5q0 -66 -47.5 -111t-108.5 -45z M721 1036q-31 0 -58.5 12.5t-49 34t-35 49t-13.5 60.5t13.5 60.5t35 49t49 34t58.5 12.5q61 0 108.5 -45.5t47.5 -110.5q0 -66 -47.5 -111t-108.5 -45z" />
<glyph unicode="&#xe5;" horiz-adv-x="999" d="M434 354q-53 0 -76.5 -21.5t-23.5 -58.5q0 -78 119 -77q86 0 128 33.5t42 88.5v35h-189zM498 1122q37 0 62.5 23.5t25.5 68.5t-25.5 69t-62.5 24t-62.5 -23.5t-25.5 -69.5q0 -45 25.5 -68.5t62.5 -23.5zM623 518q-6 145 -146 146q-78 0 -124 -27t-74 -53l-154 164 q31 31 64.5 56t78.5 44.5t101.5 31t134.5 11.5q84 0 155.5 -23.5t125 -71.5t83 -123t29.5 -177v-496h-274l6 121q-49 -76 -109.5 -107.5t-148.5 -31.5q-59 0 -114.5 14t-98.5 47t-69 85t-26 128q0 139 97.5 200.5t259.5 61.5h203zM498 971q-55 0 -104.5 19.5t-84.5 53 t-55.5 77.5t-20.5 93t20.5 94.5t55.5 78t84 52t105 19.5q55 0 104 -19.5t84 -52t55.5 -77.5t20.5 -95q0 -49 -20.5 -93t-55.5 -77.5t-84 -53t-104 -19.5z" />
<glyph unicode="&#xe6;" horiz-adv-x="1646" d="M434 352q-100 0 -100 -78t119 -77q86 0 128 33.5t42 88.5v33h-189zM1288 514q-8 66 -52 109t-130 43q-80 0 -134 -37t-71 -115h387zM623 514q-4 78 -39 114t-107 36q-78 0 -124 -27t-74 -53l-154 164q31 31 64.5 56t78.5 44.5t101.5 31t134.5 11.5q92 0 162.5 -31 t117.5 -96q57 59 137 93t183 34q117 0 207 -42t149.5 -114.5t87 -171t19.5 -211.5h-662q20 -68 75.5 -104.5t149.5 -36.5q76 0 131.5 23.5t88.5 46.5l157 -170q-63 -55 -149 -92t-223 -37q-125 0 -216.5 37.5t-150.5 107.5q-53 -70 -137 -107.5t-207 -37.5q-78 0 -144.5 15 t-114.5 48t-75 85t-27 126q0 139 97.5 198.5t259.5 59.5h203z" />
<glyph unicode="&#xe7;" horiz-adv-x="980" d="M428 -4q-78 18 -142.5 58t-110.5 97.5t-71.5 130t-25.5 156.5q0 98 36 182.5t100.5 143.5t151.5 93t189 34q131 0 216 -45t151 -129l-197 -160q-25 41 -71 66.5t-99 25.5q-94 0 -144.5 -59.5t-50.5 -151.5q0 -96 50.5 -156.5t144.5 -60.5q66 0 105.5 25.5t70.5 56.5 l187 -164q-63 -72 -143.5 -112.5t-205.5 -44.5v-62q35 -6 68 -22.5t58.5 -43t41 -63.5t15.5 -84t-19.5 -83t-50.5 -62.5t-71 -40t-81 -13.5q-96 0 -153.5 35t-87.5 88l131 80q12 -23 32.5 -40t55.5 -17q29 0 51.5 17.5t22.5 52.5t-23.5 52t-60.5 17h-70v203z" />
<glyph unicode="&#xe8;" horiz-adv-x="1101" d="M743 512q-10 72 -55 113t-127 41t-135 -38t-70 -116h387zM360 352q20 -68 76 -104.5t150 -36.5q76 0 131 23.5t88 46.5l158 -170q-63 -55 -149.5 -92t-223.5 -37q-117 0 -211 33.5t-161.5 94t-103.5 144.5t-36 184q0 98 37 182.5t102.5 143.5t152.5 93t189 34 q117 0 207 -41t149.5 -113.5t87 -171t19.5 -213.5h-662zM252 1409h315l107 -385h-209z" />
<glyph unicode="&#xe9;" horiz-adv-x="1101" d="M743 512q-10 72 -55 113t-127 41t-135 -38t-70 -116h387zM360 352q20 -68 76 -104.5t150 -36.5q76 0 131 23.5t88 46.5l158 -170q-63 -55 -149.5 -92t-223.5 -37q-117 0 -211 33.5t-161.5 94t-103.5 144.5t-36 184q0 98 37 182.5t102.5 143.5t152.5 93t189 34 q117 0 207 -41t149.5 -113.5t87 -171t19.5 -213.5h-662zM555 1409h315l-213 -385h-208z" />
<glyph unicode="&#xea;" horiz-adv-x="1101" d="M743 512q-10 72 -55 113t-127 41t-135 -38t-70 -116h387zM360 352q20 -68 76 -104.5t150 -36.5q76 0 131 23.5t88 46.5l158 -170q-63 -55 -149.5 -92t-223.5 -37q-117 0 -211 33.5t-161.5 94t-103.5 144.5t-36 184q0 98 37 182.5t102.5 143.5t152.5 93t189 34 q117 0 207 -41t149.5 -113.5t87 -171t19.5 -213.5h-662zM539 1466h22l326 -442h-221l-115 133l-117 -133h-221z" />
<glyph unicode="&#xeb;" horiz-adv-x="1101" d="M743 512q-10 72 -55 113t-127 41t-135 -38t-70 -116h387zM360 352q20 -68 76 -104.5t150 -36.5q76 0 131 23.5t88 46.5l158 -170q-63 -55 -149.5 -92t-223.5 -37q-117 0 -211 33.5t-161.5 94t-103.5 144.5t-36 184q0 98 37 182.5t102.5 143.5t152.5 93t189 34 q117 0 207 -41t149.5 -113.5t87 -171t19.5 -213.5h-662zM328 1036q-31 0 -58.5 12.5t-49 34t-35 49t-13.5 60.5t13.5 60.5t35 49t49 34t58.5 12.5q61 0 108 -45.5t47 -110.5q0 -66 -47 -111t-108 -45zM774 1036q-31 0 -58.5 12.5t-49 34t-35 49t-13.5 60.5t13.5 60.5t35 49 t49 34t58.5 12.5q61 0 108.5 -45.5t47.5 -110.5q0 -66 -47.5 -111t-108.5 -45z" />
<glyph unicode="&#xec;" horiz-adv-x="514" d="M119 872h276v-872h-276v872zM-63 1409h315l106 -385h-208z" />
<glyph unicode="&#xed;" horiz-adv-x="514" d="M119 872h276v-872h-276v872zM250 1409h315l-213 -385h-209z" />
<glyph unicode="&#xee;" horiz-adv-x="514" d="M119 872h276v-872h-276v872zM244 1466h22l326 -442h-221l-115 133l-117 -133h-221z" />
<glyph unicode="&#xef;" horiz-adv-x="514" d="M119 872h276v-872h-276v872zM33 1036q-31 0 -58.5 12.5t-49 34t-35 49t-13.5 60.5t13.5 60.5t35 49t49 34t58.5 12.5q61 0 108 -45.5t47 -110.5q0 -66 -47 -111t-108 -45zM479 1036q-31 0 -58.5 12.5t-49 34t-34.5 49t-13 60.5t13 60.5t34.5 49t49.5 34t58 12.5 q61 0 108.5 -45.5t47.5 -110.5q0 -66 -47.5 -111t-108.5 -45z" />
<glyph unicode="&#xf0;" horiz-adv-x="1116" d="M559 215q92 0 144.5 60.5t52.5 158.5t-52.5 158.5t-144.5 60.5t-145.5 -60.5t-53.5 -158.5t53.5 -158.5t145.5 -60.5zM428 969l-127 125l125 120q-63 63 -137 125l143 174l83 -63q42 -33 83 -72l115 111l127 -125l-115 -109q63 -70 120.5 -151.5t100.5 -178t67.5 -208 t24.5 -240.5q0 -123 -36.5 -215t-101 -154.5t-153 -94t-188.5 -31.5q-102 0 -189 33.5t-152.5 93t-102.5 143.5t-37 182q0 100 37 184t97 144.5t138 94.5t160 34q57 0 101 -11.5t79 -37.5q-23 57 -59.5 117.5t-85.5 121.5z" />
<glyph unicode="&#xf1;" horiz-adv-x="1085" d="M109 872h276l-6 -143q41 78 112.5 120t163.5 42q143 0 235.5 -100.5t92.5 -286.5v-504h-276v485q0 74 -36 114t-110 40q-84 0 -130 -44t-46 -128v-467h-276v872zM193 1042q8 145 71.5 216t155.5 71q41 0 72.5 -12t56.5 -29l55 -37q20 -14 43 -14q29 0 42 22.5t18 69.5 l186 -18q-8 -145 -71.5 -216t-155.5 -71q-41 0 -73 12.5t-56 28.5l-56 37q-20 14 -43 14q-51 0 -59 -92z" />
<glyph unicode="&#xf2;" horiz-adv-x="1116" d="M559 215q92 0 144.5 60.5t52.5 158.5t-52.5 158.5t-144.5 60.5t-145.5 -60.5t-53.5 -158.5t53.5 -158.5t145.5 -60.5zM559 -18q-102 0 -189 33.5t-152.5 93t-102.5 143.5t-37 182q0 100 37 184t102.5 144.5t152.5 94.5t189 34q100 0 188.5 -34t153 -94.5t101 -144 t36.5 -184.5q0 -98 -36.5 -182t-101 -143.5t-153 -93t-188.5 -33.5zM231 1409h316l106 -385h-209z" />
<glyph unicode="&#xf3;" horiz-adv-x="1116" d="M559 215q92 0 144.5 60.5t52.5 158.5t-52.5 158.5t-144.5 60.5t-145.5 -60.5t-53.5 -158.5t53.5 -158.5t145.5 -60.5zM559 -18q-102 0 -189 33.5t-152.5 93t-102.5 143.5t-37 182q0 100 37 184t102.5 144.5t152.5 94.5t189 34q100 0 188.5 -34t153 -94.5t101 -144 t36.5 -184.5q0 -98 -36.5 -182t-101 -143.5t-153 -93t-188.5 -33.5zM567 1409h316l-213 -385h-209z" />
<glyph unicode="&#xf4;" horiz-adv-x="1116" d="M559 215q92 0 144.5 60.5t52.5 158.5t-52.5 158.5t-144.5 60.5t-145.5 -60.5t-53.5 -158.5t53.5 -158.5t145.5 -60.5zM559 -18q-102 0 -189 33.5t-152.5 93t-102.5 143.5t-37 182q0 100 37 184t102.5 144.5t152.5 94.5t189 34q100 0 188.5 -34t153 -94.5t101 -144 t36.5 -184.5q0 -98 -36.5 -182t-101 -143.5t-153 -93t-188.5 -33.5zM545 1466h22l326 -442h-221l-115 133l-117 -133h-221z" />
<glyph unicode="&#xf5;" horiz-adv-x="1116" d="M559 215q92 0 144.5 60.5t52.5 158.5t-52.5 158.5t-144.5 60.5t-145.5 -60.5t-53.5 -158.5t53.5 -158.5t145.5 -60.5zM559 -18q-102 0 -189 33.5t-152.5 93t-102.5 143.5t-37 182q0 100 37 184t102.5 144.5t152.5 94.5t189 34q100 0 188.5 -34t153 -94.5t101 -144 t36.5 -184.5q0 -98 -36.5 -182t-101 -143.5t-153 -93t-188.5 -33.5zM207 1042q8 145 71.5 216t155.5 71q41 0 73 -12t56 -29l55 -37q20 -14 44 -14q29 0 42 22.5t17 69.5l186 -18q-8 -145 -71.5 -216t-155.5 -71q-41 0 -73 12.5t-56 28.5l-55 37q-20 14 -43 14 q-51 0 -60 -92z" />
<glyph unicode="&#xf6;" horiz-adv-x="1116" d="M559 215q92 0 144.5 60.5t52.5 158.5t-52.5 158.5t-144.5 60.5t-145.5 -60.5t-53.5 -158.5t53.5 -158.5t145.5 -60.5zM559 -18q-102 0 -189 33.5t-152.5 93t-102.5 143.5t-37 182q0 100 37 184t102.5 144.5t152.5 94.5t189 34q100 0 188.5 -34t153 -94.5t101 -144 t36.5 -184.5q0 -98 -36.5 -182t-101 -143.5t-153 -93t-188.5 -33.5zM334 1036q-31 0 -58.5 12.5t-49 34t-35 49t-13.5 60.5t13.5 60.5t35 49t49 34t58.5 12.5q61 0 108 -45.5t47 -110.5q0 -66 -47 -111t-108 -45zM780 1036q-31 0 -58.5 12.5t-49 34t-34.5 49t-13 60.5 t13 60.5t34.5 49t49.5 34t58 12.5q61 0 108.5 -45.5t47.5 -110.5q0 -66 -47.5 -111t-108.5 -45z" />
<glyph unicode="&#xf7;" d="M532 23q-68 0 -116.5 47t-48.5 118q0 72 49 118t116 46q66 0 115 -46t49 -118t-49 -118.5t-115 -46.5zM150 666h763v-242h-763v242zM532 737q-68 0 -116.5 47t-48.5 119t49 118t116 46q66 0 115 -46t49 -118t-49 -119t-115 -47z" />
<glyph unicode="&#xf8;" horiz-adv-x="1116" d="M446 233q47 -29 113 -28q98 0 154.5 63.5t56.5 165.5q0 35 -6 66zM668 637q-49 27 -109 27q-98 0 -155.5 -62.5t-57.5 -167.5q0 -33 6 -63zM969 672q70 -104 69 -238q0 -98 -36.5 -182t-101 -143.5t-153 -93t-188.5 -33.5q-86 0 -161.5 24.5t-137.5 71.5l-125 -107 l-106 127l118 99q-70 109 -69 237q0 100 37 184t102.5 144.5t152.5 94.5t189 34q84 0 160 -24.5t137 -71.5l125 106l106 -129z" />
<glyph unicode="&#xf9;" horiz-adv-x="1081" d="M428 -18q-143 0 -234.5 100t-91.5 287v503h277v-485q0 -74 36 -115t109 -41q84 0 128 45.5t44 129.5v466h277v-872h-277l6 143q-41 -78 -111.5 -119.5t-162.5 -41.5zM221 1409h316l106 -385h-209z" />
<glyph unicode="&#xfa;" horiz-adv-x="1081" d="M428 -18q-143 0 -234.5 100t-91.5 287v503h277v-485q0 -74 36 -115t109 -41q84 0 128 45.5t44 129.5v466h277v-872h-277l6 143q-41 -78 -111.5 -119.5t-162.5 -41.5zM545 1409h315l-213 -385h-209z" />
<glyph unicode="&#xfb;" horiz-adv-x="1081" d="M428 -18q-143 0 -234.5 100t-91.5 287v503h277v-485q0 -74 36 -115t109 -41q84 0 128 45.5t44 129.5v466h277v-872h-277l6 143q-41 -78 -111.5 -119.5t-162.5 -41.5zM528 1466h23l326 -442h-222l-114 133l-117 -133h-221z" />
<glyph unicode="&#xfc;" horiz-adv-x="1081" d="M428 -18q-143 0 -234.5 100t-91.5 287v503h277v-485q0 -74 36 -115t109 -41q84 0 128 45.5t44 129.5v466h277v-872h-277l6 143q-41 -78 -111.5 -119.5t-162.5 -41.5zM317 1036q-31 0 -58.5 12.5t-49 34t-34.5 49t-13 60.5t13 60.5t34.5 49t49.5 34t58 12.5 q61 0 108.5 -45.5t47.5 -110.5q0 -66 -47.5 -111t-108.5 -45zM764 1036q-31 0 -58.5 12.5t-49 34t-35 49t-13.5 60.5t13.5 60.5t35 49t49 34t58.5 12.5q61 0 108.5 -45.5t47.5 -110.5q0 -66 -47.5 -111t-108.5 -45z" />
<glyph unicode="&#xfd;" horiz-adv-x="1003" d="M365 82l-347 790h306l125 -335q10 -31 21 -70l22 -74q10 -41 18 -82l16 82q8 35 19.5 74t23.5 70l136 335h280l-571 -1306h-277zM524 1409h316l-213 -385h-209z" />
<glyph unicode="&#xfe;" horiz-adv-x="1136" d="M582 223q88 0 139 55.5t51 159.5q0 98 -51 153.5t-139 55.5q-90 0 -143.5 -55t-53.5 -154q0 -104 53.5 -159.5t143.5 -55.5zM117 1479h276v-729q43 66 108.5 103.5t166.5 37.5q80 0 150.5 -33t123.5 -93t84 -143t31 -184q0 -100 -32 -184t-86 -144.5t-126 -94t-151 -33.5 q-100 0 -167 37.5t-102 97.5v-551h-276v1913z" />
<glyph unicode="&#xff;" horiz-adv-x="1003" d="M365 82l-347 790h306l125 -335q10 -31 21 -70l22 -74q10 -41 18 -82l16 82q8 35 19.5 74t23.5 70l136 335h280l-571 -1306h-277zM276 1036q-31 0 -58.5 12.5t-49 34t-34.5 49t-13 60.5t13 60.5t34.5 49t49.5 34t58 12.5q61 0 108.5 -45.5t47.5 -110.5q0 -66 -47.5 -111 t-108.5 -45zM723 1036q-31 0 -58.5 12.5t-49 34t-35 49t-13.5 60.5t13.5 60.5t35 49t49 34t58.5 12.5q61 0 108.5 -45.5t47.5 -110.5q0 -66 -47.5 -111t-108.5 -45z" />
<glyph unicode="&#x152;" horiz-adv-x="2041" d="M971 252v889h-127q-117 0 -202 -33t-140.5 -92.5t-82 -140t-26.5 -179.5q0 -98 26.5 -179t82 -140.5t140.5 -92t202 -32.5h127zM829 0q-160 0 -295 51t-232 143.5t-151.5 220.5t-54.5 281q0 154 54.5 282t151.5 220t231.5 143.5t295.5 51.5h1063v-252h-635v-443h560v-245 h-560v-201h664v-252h-1092z" />
<glyph unicode="&#x153;" horiz-adv-x="1775" d="M559 215q92 0 144.5 60.5t52.5 158.5t-52.5 158.5t-144.5 60.5t-145.5 -60.5t-53.5 -158.5t53.5 -158.5t145.5 -60.5zM1417 512q-10 72 -55 113t-127 41t-135 -38t-70 -116h387zM1034 352q20 -68 75.5 -104.5t150.5 -36.5q76 0 131 23.5t88 46.5l157 -170 q-63 -55 -149 -92t-223 -37q-127 0 -217.5 39.5t-149.5 111.5q-53 -72 -137 -111.5t-201 -39.5q-102 0 -189 33.5t-152.5 93t-102.5 143.5t-37 182q0 100 37 184t102.5 144.5t152.5 94.5t189 34q115 0 199 -39t137 -111q53 72 138 111t200 39q117 0 207 -42t149.5 -113.5 t86 -171t20.5 -212.5h-662z" />
<glyph unicode="&#x178;" horiz-adv-x="1396" d="M571 442l-528 951h317l246 -449q20 -37 40 -83l36 -87l37 -94q16 47 35 94l34 86q18 45 39 84l236 449h293l-496 -930v-463h-289v442zM475 1544q-31 0 -58.5 12.5t-49 34t-35 49t-13.5 60.5t13.5 60.5t35 49t49 33.5t58.5 12q61 0 108.5 -45t47.5 -110q0 -66 -47.5 -111 t-108.5 -45zM922 1544q-31 0 -58.5 12.5t-49 34t-35 49t-13.5 60.5t13.5 60.5t35 49t49 33.5t58.5 12q61 0 108 -45t47 -110q0 -66 -47 -111t-108 -45z" />
<glyph unicode="&#x2c6;" horiz-adv-x="1024" d="M500 1466h22l326 -442h-221l-115 133l-117 -133h-221z" />
<glyph unicode="&#x2dc;" horiz-adv-x="1024" d="M162 1042q8 145 71.5 216t155.5 71q41 0 73 -12t56 -29l55 -37q20 -14 43 -14q29 0 42.5 22.5t17.5 69.5l186 -18q-8 -145 -71.5 -216t-155.5 -71q-41 0 -73 12.5t-56 28.5l-55 37q-20 14 -43 14q-51 0 -60 -92z" />
<glyph unicode="&#x2000;" horiz-adv-x="987" />
<glyph unicode="&#x2001;" horiz-adv-x="1974" />
<glyph unicode="&#x2002;" horiz-adv-x="987" />
<glyph unicode="&#x2003;" horiz-adv-x="1974" />
<glyph unicode="&#x2004;" horiz-adv-x="657" />
<glyph unicode="&#x2005;" horiz-adv-x="493" />
<glyph unicode="&#x2006;" horiz-adv-x="327" />
<glyph unicode="&#x2007;" horiz-adv-x="327" />
<glyph unicode="&#x2008;" horiz-adv-x="245" />
<glyph unicode="&#x2009;" horiz-adv-x="393" />
<glyph unicode="&#x200a;" horiz-adv-x="108" />
<glyph unicode="&#x2010;" horiz-adv-x="618" d="M74 618h471v-245h-471v245z" />
<glyph unicode="&#x2011;" horiz-adv-x="618" d="M74 618h471v-245h-471v245z" />
<glyph unicode="&#x2012;" horiz-adv-x="618" d="M74 618h471v-245h-471v245z" />
<glyph unicode="&#x2013;" horiz-adv-x="831" d="M61 588h709v-246h-709v246z" />
<glyph unicode="&#x2014;" horiz-adv-x="1345" d="M61 588h1223v-246h-1223v246z" />
<glyph unicode="&#x2018;" horiz-adv-x="495" d="M250 846q-68 0 -118 46t-50 116q0 47 16.5 88t44.5 88l123 209h133l-77 -234q37 -16 64.5 -56t27.5 -93q0 -72 -49 -118t-115 -46z" />
<glyph unicode="&#x2019;" horiz-adv-x="495" d="M174 1094q-37 16 -64.5 56t-27.5 93q0 72 49 118t115 46q68 0 118 -46t50 -116q0 -47 -16.5 -88t-45.5 -88l-123 -209h-133z" />
<glyph unicode="&#x201a;" horiz-adv-x="495" d="M174 25q-37 16 -64.5 56t-27.5 93q0 72 49 118t115 46q68 0 118 -46t50 -116q0 -47 -16.5 -88t-45.5 -88l-123 -209h-133z" />
<glyph unicode="&#x201c;" horiz-adv-x="940" d="M250 846q-68 0 -118 46t-50 116q0 47 16.5 88t44.5 88l123 209h133l-77 -234q37 -16 64.5 -56t27.5 -93q0 -72 -49 -118t-115 -46zM694 846q-68 0 -118 46t-50 116q0 47 16.5 88t45.5 88l123 209h133l-78 -234q37 -16 64.5 -56t27.5 -93q0 -72 -49 -118t-115 -46z" />
<glyph unicode="&#x201d;" horiz-adv-x="940" d="M174 1094q-37 16 -64.5 56t-27.5 93q0 72 49 118t115 46q68 0 118 -46t50 -116q0 -47 -16.5 -88t-45.5 -88l-123 -209h-133zM618 1094q-37 16 -64.5 56t-27.5 93q0 72 49.5 118t114.5 46q68 0 118 -46t50 -116q0 -47 -16.5 -88t-44.5 -88l-123 -209h-133z" />
<glyph unicode="&#x201e;" horiz-adv-x="940" d="M174 25q-37 16 -64.5 56t-27.5 93q0 72 49 118t115 46q68 0 118 -46t50 -116q0 -47 -16.5 -88t-45.5 -88l-123 -209h-133zM618 25q-37 16 -64.5 56t-27.5 93q0 72 49.5 118t114.5 46q68 0 118 -46t50 -116q0 -47 -16.5 -88t-44.5 -88l-123 -209h-133z" />
<glyph unicode="&#x2022;" horiz-adv-x="567" d="M283 348q-43 0 -83 17.5t-71 47t-48.5 69.5t-17.5 87t17.5 88t48.5 71t71 46.5t83 16.5t83 -16.5t70.5 -46.5t49 -71t18.5 -88t-18.5 -87t-49 -69.5t-70.5 -47t-83 -17.5z" />
<glyph unicode="&#x2026;" horiz-adv-x="1513" d="M256 -12q-72 0 -123 48t-51 126q0 76 51 124t123 48q70 0 121 -48t51 -124q0 -78 -51 -126t-121 -48zM758 -12q-72 0 -123 48t-51 126q0 76 51 124t123 48q70 0 121 -48t51 -124q0 -78 -51 -126t-121 -48zM1260 -12q-72 0 -123.5 48t-51.5 126q0 76 51.5 124t123.5 48 q70 0 121 -48t51 -124q0 -78 -51 -126t-121 -48z" />
<glyph unicode="&#x202f;" horiz-adv-x="393" />
<glyph unicode="&#x2039;" horiz-adv-x="591" d="M66 410v16l194 338h266l-200 -346l200 -352h-266z" />
<glyph unicode="&#x203a;" horiz-adv-x="591" d="M266 412l-200 352h266l194 -344v-17l-194 -337h-266z" />
<glyph unicode="&#x205f;" horiz-adv-x="493" />
<glyph unicode="&#x20ac;" d="M43 580v176h131q55 150 177 240.5t286 90.5q137 0 231.5 -49t163.5 -147l-192 -152q-41 57 -86 86t-117 29q-119 0 -176 -98h227v-176h-272q-2 -10 -2 -22v-21v-22q0 -11 2 -21h272v-177h-231q53 -100 180 -100q80 0 125 37t78 90l209 -131q-59 -104 -155.5 -167.5 t-252.5 -63.5q-82 0 -154.5 24.5t-133 68.5t-106.5 106.5t-73 135.5h-131v177h94q-2 10 -2 21v22v21q0 11 2 22h-94z" />
<glyph unicode="&#x2122;" horiz-adv-x="1456" d="M238 1241h-166v152h520v-152h-166v-467h-188v467zM698 1401h21l301 -301l301 301h20v-627h-184v252l-127 -145h-18l-129 145v-252h-185v627z" />
<glyph unicode="&#xe000;" horiz-adv-x="870" d="M0 870h870v-870h-870v870z" />
<glyph unicode="&#xfb01;" horiz-adv-x="1193" d="M209 643h-146v229h146v293q0 340 321 340q82 0 133.5 -20.5t96.5 -59.5l-129 -194q-12 10 -30.5 18t-43.5 8q-33 0 -52.5 -20t-19.5 -68v-297h590v-872h-276v643h-314v-643h-276v643zM938 1018q-72 0 -124 48t-52 126q0 76 52 124t124 48t123 -48t51 -124q0 -78 -51 -126 t-123 -48z" />
<glyph unicode="&#xfb02;" horiz-adv-x="1193" d="M209 643h-146v229h146v197q0 106 33.5 187t92 136.5t137.5 84t169 28.5t169 -25.5t138.5 -77.5t93 -130t33.5 -180v-1092h-276v1077q0 104 -46 142t-112 38t-111 -39.5t-45 -140.5v-205h203v-229h-203v-643h-276v643z" />
<glyph unicode="&#xfb03;" horiz-adv-x="2078" d="M1684 872h276v-872h-276v872zM1823 1018q-72 0 -124 48t-52 126q0 76 52 124t124 48t123 -48t51 -124q0 -78 -51 -126t-123 -48zM991 643h-146v229h146v293q0 340 321 340q92 0 157 -27.5t112 -82.5l-150 -185q-16 18 -35.5 32.5t-52.5 14.5q-35 0 -55.5 -20t-20.5 -68 v-297h236v-229h-236v-643h-276v643zM209 643h-146v229h146v293q0 340 321 340q92 0 157 -27.5t112 -82.5l-150 -185q-16 18 -35.5 32.5t-52.5 14.5q-35 0 -55.5 -20t-20.5 -68v-297h236v-229h-236v-643h-276v643z" />
<glyph unicode="&#xfb04;" horiz-adv-x="2068" d="M1680 1479h274v-1479h-274v1479zM991 643h-146v229h146v293q0 340 321 340q92 0 157 -27.5t112 -82.5l-150 -185q-16 18 -35.5 32.5t-52.5 14.5q-35 0 -55.5 -20t-20.5 -68v-297h236v-229h-236v-643h-276v643zM209 643h-146v229h146v293q0 340 321 340q92 0 157 -27.5 t112 -82.5l-150 -185q-16 18 -35.5 32.5t-52.5 14.5q-35 0 -55.5 -20t-20.5 -68v-297h236v-229h-236v-643h-276v643z" />
</font>
</defs>
</svg>
